<mxfile host="app.diagrams.net" agent="Mozilla/5.0 (Windows NT 10.0; Win64; x64) AppleWebKit/537.36 (KHTML, like Gecko) Chrome/134.0.0.0 Safari/537.36" version="25.0.3" pages="3">
  <diagram id="-pp_4rtSkkgMuaA1rZWp" name="component">
    <mxGraphModel dx="2085" dy="655" grid="1" gridSize="10" guides="1" tooltips="1" connect="1" arrows="1" fold="1" page="1" pageScale="1" pageWidth="850" pageHeight="1100" math="0" shadow="0">
      <root>
        <mxCell id="0" />
        <mxCell id="1" parent="0" />
        <mxCell id="qoWuTXzaB_ndGhobqMYi-1" value="Start" style="strokeWidth=2;html=1;shape=mxgraph.flowchart.terminator;whiteSpace=wrap;strokeColor=default;" parent="1" vertex="1">
          <mxGeometry x="-170" y="120" width="105" height="50" as="geometry" />
        </mxCell>
        <mxCell id="qoWuTXzaB_ndGhobqMYi-2" value="Inisialisasi" style="rounded=1;whiteSpace=wrap;html=1;absoluteArcSize=1;arcSize=14;strokeWidth=2;" parent="1" vertex="1">
          <mxGeometry x="-320" y="115" width="120" height="60" as="geometry" />
        </mxCell>
        <mxCell id="qoWuTXzaB_ndGhobqMYi-3" value="Kondisi" style="strokeWidth=2;html=1;shape=mxgraph.flowchart.decision;whiteSpace=wrap;" parent="1" vertex="1">
          <mxGeometry x="-460" y="95" width="112" height="100" as="geometry" />
        </mxCell>
        <mxCell id="qoWuTXzaB_ndGhobqMYi-4" value="Input Output" style="shape=parallelogram;html=1;strokeWidth=2;perimeter=parallelogramPerimeter;whiteSpace=wrap;rounded=1;arcSize=12;size=0.23;" parent="1" vertex="1">
          <mxGeometry x="-630" y="120" width="140" height="60" as="geometry" />
        </mxCell>
        <mxCell id="qoWuTXzaB_ndGhobqMYi-5" value="No" style="text;html=1;align=center;verticalAlign=middle;whiteSpace=wrap;rounded=0;" parent="1" vertex="1">
          <mxGeometry x="-820" y="130" width="30" height="30" as="geometry" />
        </mxCell>
        <mxCell id="qoWuTXzaB_ndGhobqMYi-6" value="Yes" style="text;html=1;align=center;verticalAlign=middle;whiteSpace=wrap;rounded=0;" parent="1" vertex="1">
          <mxGeometry x="-780" y="130" width="30" height="30" as="geometry" />
        </mxCell>
        <mxCell id="E7FTv9cq9aOEYz1DokrG-1" value="Function" style="shape=process;whiteSpace=wrap;html=1;backgroundOutline=1;rounded=1;arcSize=7;strokeWidth=2;" vertex="1" parent="1">
          <mxGeometry x="-320" y="210" width="120" height="60" as="geometry" />
        </mxCell>
      </root>
    </mxGraphModel>
  </diagram>
  <diagram id="1nvReu2-7PWtqVjhqMmw" name="crud">
    <mxGraphModel dx="6100" dy="2785" grid="1" gridSize="10" guides="1" tooltips="1" connect="1" arrows="1" fold="1" page="1" pageScale="1" pageWidth="850" pageHeight="1100" math="0" shadow="0">
      <root>
        <mxCell id="0" />
        <mxCell id="1" parent="0" />
        <mxCell id="7B3wJfjYLKhbsEHf2mkx-108" style="edgeStyle=orthogonalEdgeStyle;rounded=0;orthogonalLoop=1;jettySize=auto;html=1;entryX=0.5;entryY=0;entryDx=0;entryDy=0;" parent="1" source="7B3wJfjYLKhbsEHf2mkx-7" target="7B3wJfjYLKhbsEHf2mkx-8" edge="1">
          <mxGeometry relative="1" as="geometry" />
        </mxCell>
        <mxCell id="7B3wJfjYLKhbsEHf2mkx-7" value="Start" style="strokeWidth=2;html=1;shape=mxgraph.flowchart.terminator;whiteSpace=wrap;strokeColor=default;" parent="1" vertex="1">
          <mxGeometry x="448" y="101" width="105" height="50" as="geometry" />
        </mxCell>
        <mxCell id="7B3wJfjYLKhbsEHf2mkx-107" style="edgeStyle=orthogonalEdgeStyle;rounded=0;orthogonalLoop=1;jettySize=auto;html=1;" parent="1" source="7B3wJfjYLKhbsEHf2mkx-8" target="7B3wJfjYLKhbsEHf2mkx-9" edge="1">
          <mxGeometry relative="1" as="geometry" />
        </mxCell>
        <mxCell id="7B3wJfjYLKhbsEHf2mkx-8" value="Inisialisasi array list dan scanner" style="rounded=1;whiteSpace=wrap;html=1;absoluteArcSize=1;arcSize=14;strokeWidth=2;" parent="1" vertex="1">
          <mxGeometry x="440.5" y="186" width="120" height="60" as="geometry" />
        </mxCell>
        <mxCell id="7B3wJfjYLKhbsEHf2mkx-9" value="boolean next = true" style="rounded=1;whiteSpace=wrap;html=1;absoluteArcSize=1;arcSize=14;strokeWidth=2;" parent="1" vertex="1">
          <mxGeometry x="440.5" y="281" width="120" height="60" as="geometry" />
        </mxCell>
        <mxCell id="7B3wJfjYLKhbsEHf2mkx-101" style="edgeStyle=orthogonalEdgeStyle;rounded=0;orthogonalLoop=1;jettySize=auto;html=1;entryX=0.5;entryY=0;entryDx=0;entryDy=0;" parent="1" source="7B3wJfjYLKhbsEHf2mkx-10" target="7B3wJfjYLKhbsEHf2mkx-11" edge="1">
          <mxGeometry relative="1" as="geometry" />
        </mxCell>
        <mxCell id="7B3wJfjYLKhbsEHf2mkx-10" value="next == true?" style="strokeWidth=2;html=1;shape=mxgraph.flowchart.decision;whiteSpace=wrap;" parent="1" vertex="1">
          <mxGeometry x="444" y="381" width="112" height="100" as="geometry" />
        </mxCell>
        <mxCell id="7B3wJfjYLKhbsEHf2mkx-104" style="edgeStyle=orthogonalEdgeStyle;rounded=0;orthogonalLoop=1;jettySize=auto;html=1;" parent="1" source="7B3wJfjYLKhbsEHf2mkx-11" target="7B3wJfjYLKhbsEHf2mkx-13" edge="1">
          <mxGeometry relative="1" as="geometry" />
        </mxCell>
        <mxCell id="7B3wJfjYLKhbsEHf2mkx-11" value="Output &quot;Masukkan perintah: &quot;" style="shape=parallelogram;html=1;strokeWidth=2;perimeter=parallelogramPerimeter;whiteSpace=wrap;rounded=1;arcSize=12;size=0.23;" parent="1" vertex="1">
          <mxGeometry x="430" y="521" width="140" height="60" as="geometry" />
        </mxCell>
        <mxCell id="7B3wJfjYLKhbsEHf2mkx-38" style="edgeStyle=orthogonalEdgeStyle;rounded=0;orthogonalLoop=1;jettySize=auto;html=1;entryX=0;entryY=0.5;entryDx=0;entryDy=0;" parent="1" source="7B3wJfjYLKhbsEHf2mkx-12" target="7B3wJfjYLKhbsEHf2mkx-14" edge="1">
          <mxGeometry relative="1" as="geometry" />
        </mxCell>
        <mxCell id="7B3wJfjYLKhbsEHf2mkx-44" value="" style="edgeStyle=orthogonalEdgeStyle;rounded=0;orthogonalLoop=1;jettySize=auto;html=1;" parent="1" source="7B3wJfjYLKhbsEHf2mkx-12" target="7B3wJfjYLKhbsEHf2mkx-25" edge="1">
          <mxGeometry relative="1" as="geometry" />
        </mxCell>
        <mxCell id="7B3wJfjYLKhbsEHf2mkx-12" value="perintah ==&lt;div&gt;tambah?&lt;/div&gt;" style="strokeWidth=2;html=1;shape=mxgraph.flowchart.decision;whiteSpace=wrap;" parent="1" vertex="1">
          <mxGeometry x="444.5" y="701" width="112" height="100" as="geometry" />
        </mxCell>
        <mxCell id="7B3wJfjYLKhbsEHf2mkx-13" value="Input perintah" style="shape=parallelogram;html=1;strokeWidth=2;perimeter=parallelogramPerimeter;whiteSpace=wrap;rounded=1;arcSize=12;size=0.23;" parent="1" vertex="1">
          <mxGeometry x="430" y="611" width="140" height="60" as="geometry" />
        </mxCell>
        <mxCell id="7B3wJfjYLKhbsEHf2mkx-39" value="" style="edgeStyle=orthogonalEdgeStyle;rounded=0;orthogonalLoop=1;jettySize=auto;html=1;" parent="1" source="7B3wJfjYLKhbsEHf2mkx-14" target="7B3wJfjYLKhbsEHf2mkx-15" edge="1">
          <mxGeometry relative="1" as="geometry" />
        </mxCell>
        <mxCell id="7B3wJfjYLKhbsEHf2mkx-14" value="Output &quot;Masukkan&amp;nbsp;&lt;div&gt;ID user: &quot;&lt;/div&gt;" style="shape=parallelogram;html=1;strokeWidth=2;perimeter=parallelogramPerimeter;whiteSpace=wrap;rounded=1;arcSize=12;size=0.23;" parent="1" vertex="1">
          <mxGeometry x="610" y="721" width="140" height="60" as="geometry" />
        </mxCell>
        <mxCell id="7B3wJfjYLKhbsEHf2mkx-40" value="" style="edgeStyle=orthogonalEdgeStyle;rounded=0;orthogonalLoop=1;jettySize=auto;html=1;" parent="1" source="7B3wJfjYLKhbsEHf2mkx-15" target="7B3wJfjYLKhbsEHf2mkx-16" edge="1">
          <mxGeometry relative="1" as="geometry" />
        </mxCell>
        <mxCell id="7B3wJfjYLKhbsEHf2mkx-15" value="Input id user" style="shape=parallelogram;html=1;strokeWidth=2;perimeter=parallelogramPerimeter;whiteSpace=wrap;rounded=1;arcSize=12;size=0.23;" parent="1" vertex="1">
          <mxGeometry x="610" y="821" width="140" height="60" as="geometry" />
        </mxCell>
        <mxCell id="7B3wJfjYLKhbsEHf2mkx-41" value="" style="edgeStyle=orthogonalEdgeStyle;rounded=0;orthogonalLoop=1;jettySize=auto;html=1;" parent="1" source="7B3wJfjYLKhbsEHf2mkx-16" target="7B3wJfjYLKhbsEHf2mkx-17" edge="1">
          <mxGeometry relative="1" as="geometry" />
        </mxCell>
        <mxCell id="7B3wJfjYLKhbsEHf2mkx-16" value="Output &quot;Masukkan&lt;div&gt;nama user: &quot;&lt;/div&gt;" style="shape=parallelogram;html=1;strokeWidth=2;perimeter=parallelogramPerimeter;whiteSpace=wrap;rounded=1;arcSize=12;size=0.23;" parent="1" vertex="1">
          <mxGeometry x="610" y="921" width="140" height="60" as="geometry" />
        </mxCell>
        <mxCell id="7B3wJfjYLKhbsEHf2mkx-42" value="" style="edgeStyle=orthogonalEdgeStyle;rounded=0;orthogonalLoop=1;jettySize=auto;html=1;" parent="1" source="7B3wJfjYLKhbsEHf2mkx-17" target="7B3wJfjYLKhbsEHf2mkx-18" edge="1">
          <mxGeometry relative="1" as="geometry" />
        </mxCell>
        <mxCell id="7B3wJfjYLKhbsEHf2mkx-17" value="Input nama user" style="shape=parallelogram;html=1;strokeWidth=2;perimeter=parallelogramPerimeter;whiteSpace=wrap;rounded=1;arcSize=12;size=0.23;" parent="1" vertex="1">
          <mxGeometry x="610" y="1021" width="140" height="60" as="geometry" />
        </mxCell>
        <mxCell id="7B3wJfjYLKhbsEHf2mkx-43" value="" style="edgeStyle=orthogonalEdgeStyle;rounded=0;orthogonalLoop=1;jettySize=auto;html=1;" parent="1" source="7B3wJfjYLKhbsEHf2mkx-18" target="7B3wJfjYLKhbsEHf2mkx-23" edge="1">
          <mxGeometry relative="1" as="geometry" />
        </mxCell>
        <mxCell id="7B3wJfjYLKhbsEHf2mkx-18" value="User ditambah dalam&amp;nbsp;&lt;div&gt;array list&lt;/div&gt;" style="rounded=1;whiteSpace=wrap;html=1;absoluteArcSize=1;arcSize=14;strokeWidth=2;" parent="1" vertex="1">
          <mxGeometry x="620" y="1121" width="120" height="60" as="geometry" />
        </mxCell>
        <mxCell id="7B3wJfjYLKhbsEHf2mkx-23" value="Output &quot;User berhasil&lt;div&gt;ditambahkan&quot;&lt;/div&gt;" style="shape=parallelogram;html=1;strokeWidth=2;perimeter=parallelogramPerimeter;whiteSpace=wrap;rounded=1;arcSize=12;size=0.23;" parent="1" vertex="1">
          <mxGeometry x="610" y="1221" width="140" height="60" as="geometry" />
        </mxCell>
        <mxCell id="7B3wJfjYLKhbsEHf2mkx-45" style="edgeStyle=orthogonalEdgeStyle;rounded=0;orthogonalLoop=1;jettySize=auto;html=1;entryX=1;entryY=0.5;entryDx=0;entryDy=0;" parent="1" source="7B3wJfjYLKhbsEHf2mkx-25" target="7B3wJfjYLKhbsEHf2mkx-26" edge="1">
          <mxGeometry relative="1" as="geometry">
            <Array as="points">
              <mxPoint x="390" y="881" />
              <mxPoint x="390" y="641" />
            </Array>
          </mxGeometry>
        </mxCell>
        <mxCell id="7B3wJfjYLKhbsEHf2mkx-61" style="edgeStyle=orthogonalEdgeStyle;rounded=0;orthogonalLoop=1;jettySize=auto;html=1;" parent="1" source="7B3wJfjYLKhbsEHf2mkx-25" target="7B3wJfjYLKhbsEHf2mkx-60" edge="1">
          <mxGeometry relative="1" as="geometry" />
        </mxCell>
        <mxCell id="7B3wJfjYLKhbsEHf2mkx-25" value="perintah ==&lt;div&gt;edit?&lt;/div&gt;" style="strokeWidth=2;html=1;shape=mxgraph.flowchart.decision;whiteSpace=wrap;" parent="1" vertex="1">
          <mxGeometry x="444.5" y="831" width="112" height="100" as="geometry" />
        </mxCell>
        <mxCell id="7B3wJfjYLKhbsEHf2mkx-46" value="" style="edgeStyle=orthogonalEdgeStyle;rounded=0;orthogonalLoop=1;jettySize=auto;html=1;" parent="1" source="7B3wJfjYLKhbsEHf2mkx-26" target="7B3wJfjYLKhbsEHf2mkx-28" edge="1">
          <mxGeometry relative="1" as="geometry" />
        </mxCell>
        <mxCell id="7B3wJfjYLKhbsEHf2mkx-26" value="Output &quot;Masukkan&amp;nbsp;&lt;div&gt;ID user: &quot;&lt;/div&gt;" style="shape=parallelogram;html=1;strokeWidth=2;perimeter=parallelogramPerimeter;whiteSpace=wrap;rounded=1;arcSize=12;size=0.23;" parent="1" vertex="1">
          <mxGeometry x="240" y="611" width="140" height="60" as="geometry" />
        </mxCell>
        <mxCell id="7B3wJfjYLKhbsEHf2mkx-48" style="edgeStyle=orthogonalEdgeStyle;rounded=0;orthogonalLoop=1;jettySize=auto;html=1;entryX=0.5;entryY=0;entryDx=0;entryDy=0;" parent="1" source="7B3wJfjYLKhbsEHf2mkx-28" target="7B3wJfjYLKhbsEHf2mkx-29" edge="1">
          <mxGeometry relative="1" as="geometry" />
        </mxCell>
        <mxCell id="7B3wJfjYLKhbsEHf2mkx-28" value="Input id user" style="shape=parallelogram;html=1;strokeWidth=2;perimeter=parallelogramPerimeter;whiteSpace=wrap;rounded=1;arcSize=12;size=0.23;" parent="1" vertex="1">
          <mxGeometry x="240" y="711" width="140" height="60" as="geometry" />
        </mxCell>
        <mxCell id="7B3wJfjYLKhbsEHf2mkx-29" value="boolean&amp;nbsp;&lt;div&gt;found = false&lt;/div&gt;" style="rounded=1;whiteSpace=wrap;html=1;absoluteArcSize=1;arcSize=14;strokeWidth=2;" parent="1" vertex="1">
          <mxGeometry x="250" y="811" width="120" height="60" as="geometry" />
        </mxCell>
        <mxCell id="7B3wJfjYLKhbsEHf2mkx-133" value="" style="edgeStyle=orthogonalEdgeStyle;rounded=0;orthogonalLoop=1;jettySize=auto;html=1;" parent="1" source="7B3wJfjYLKhbsEHf2mkx-30" target="7B3wJfjYLKhbsEHf2mkx-37" edge="1">
          <mxGeometry relative="1" as="geometry" />
        </mxCell>
        <mxCell id="7B3wJfjYLKhbsEHf2mkx-30" value="User ada di&lt;div&gt;daftar user?&lt;/div&gt;" style="strokeWidth=2;html=1;shape=mxgraph.flowchart.decision;whiteSpace=wrap;" parent="1" vertex="1">
          <mxGeometry x="90" y="791" width="112" height="100" as="geometry" />
        </mxCell>
        <mxCell id="7B3wJfjYLKhbsEHf2mkx-51" style="edgeStyle=orthogonalEdgeStyle;rounded=0;orthogonalLoop=1;jettySize=auto;html=1;entryX=0.5;entryY=0;entryDx=0;entryDy=0;" parent="1" source="7B3wJfjYLKhbsEHf2mkx-31" target="7B3wJfjYLKhbsEHf2mkx-32" edge="1">
          <mxGeometry relative="1" as="geometry" />
        </mxCell>
        <mxCell id="7B3wJfjYLKhbsEHf2mkx-31" value="user.id ==&amp;nbsp;&lt;div&gt;id user?&lt;/div&gt;" style="strokeWidth=2;html=1;shape=mxgraph.flowchart.decision;whiteSpace=wrap;" parent="1" vertex="1">
          <mxGeometry x="90" y="921" width="112" height="100" as="geometry" />
        </mxCell>
        <mxCell id="7B3wJfjYLKhbsEHf2mkx-52" style="edgeStyle=orthogonalEdgeStyle;rounded=0;orthogonalLoop=1;jettySize=auto;html=1;" parent="1" source="7B3wJfjYLKhbsEHf2mkx-32" target="7B3wJfjYLKhbsEHf2mkx-33" edge="1">
          <mxGeometry relative="1" as="geometry" />
        </mxCell>
        <mxCell id="7B3wJfjYLKhbsEHf2mkx-32" value="Output &quot;Masukkan&amp;nbsp;&lt;div&gt;nama baru: &quot;&lt;/div&gt;" style="shape=parallelogram;html=1;strokeWidth=2;perimeter=parallelogramPerimeter;whiteSpace=wrap;rounded=1;arcSize=12;size=0.23;" parent="1" vertex="1">
          <mxGeometry x="76" y="1051" width="140" height="60" as="geometry" />
        </mxCell>
        <mxCell id="7B3wJfjYLKhbsEHf2mkx-33" value="Input nama baru&lt;div&gt;user&lt;/div&gt;" style="shape=parallelogram;html=1;strokeWidth=2;perimeter=parallelogramPerimeter;whiteSpace=wrap;rounded=1;arcSize=12;size=0.23;" parent="1" vertex="1">
          <mxGeometry x="76" y="1141" width="140" height="60" as="geometry" />
        </mxCell>
        <mxCell id="7B3wJfjYLKhbsEHf2mkx-54" value="" style="edgeStyle=orthogonalEdgeStyle;rounded=0;orthogonalLoop=1;jettySize=auto;html=1;" parent="1" source="7B3wJfjYLKhbsEHf2mkx-34" target="7B3wJfjYLKhbsEHf2mkx-35" edge="1">
          <mxGeometry relative="1" as="geometry" />
        </mxCell>
        <mxCell id="7B3wJfjYLKhbsEHf2mkx-34" value="Output &quot;Data&amp;nbsp;&lt;div&gt;berhasil&lt;/div&gt;&lt;div&gt;diperbarui&quot;&lt;/div&gt;" style="shape=parallelogram;html=1;strokeWidth=2;perimeter=parallelogramPerimeter;whiteSpace=wrap;rounded=1;arcSize=12;size=0.23;" parent="1" vertex="1">
          <mxGeometry x="70" y="1231" width="140" height="60" as="geometry" />
        </mxCell>
        <mxCell id="7B3wJfjYLKhbsEHf2mkx-55" style="edgeStyle=orthogonalEdgeStyle;rounded=0;orthogonalLoop=1;jettySize=auto;html=1;entryX=1;entryY=0.5;entryDx=0;entryDy=0;" parent="1" source="7B3wJfjYLKhbsEHf2mkx-35" target="7B3wJfjYLKhbsEHf2mkx-36" edge="1">
          <mxGeometry relative="1" as="geometry" />
        </mxCell>
        <mxCell id="7B3wJfjYLKhbsEHf2mkx-35" value="found = true" style="rounded=1;whiteSpace=wrap;html=1;absoluteArcSize=1;arcSize=14;strokeWidth=2;" parent="1" vertex="1">
          <mxGeometry x="80" y="1321" width="120" height="60" as="geometry" />
        </mxCell>
        <mxCell id="7B3wJfjYLKhbsEHf2mkx-36" value="break" style="rounded=1;whiteSpace=wrap;html=1;absoluteArcSize=1;arcSize=14;strokeWidth=2;" parent="1" vertex="1">
          <mxGeometry x="-80" y="1321" width="120" height="60" as="geometry" />
        </mxCell>
        <mxCell id="7B3wJfjYLKhbsEHf2mkx-59" value="" style="edgeStyle=orthogonalEdgeStyle;rounded=0;orthogonalLoop=1;jettySize=auto;html=1;" parent="1" source="7B3wJfjYLKhbsEHf2mkx-37" target="7B3wJfjYLKhbsEHf2mkx-58" edge="1">
          <mxGeometry relative="1" as="geometry" />
        </mxCell>
        <mxCell id="7B3wJfjYLKhbsEHf2mkx-37" value="found != true?" style="strokeWidth=2;html=1;shape=mxgraph.flowchart.decision;whiteSpace=wrap;" parent="1" vertex="1">
          <mxGeometry x="90" y="661" width="112" height="100" as="geometry" />
        </mxCell>
        <mxCell id="7B3wJfjYLKhbsEHf2mkx-49" style="edgeStyle=orthogonalEdgeStyle;rounded=0;orthogonalLoop=1;jettySize=auto;html=1;entryX=1;entryY=0.5;entryDx=0;entryDy=0;entryPerimeter=0;" parent="1" source="7B3wJfjYLKhbsEHf2mkx-29" target="7B3wJfjYLKhbsEHf2mkx-30" edge="1">
          <mxGeometry relative="1" as="geometry" />
        </mxCell>
        <mxCell id="7B3wJfjYLKhbsEHf2mkx-50" style="edgeStyle=orthogonalEdgeStyle;rounded=0;orthogonalLoop=1;jettySize=auto;html=1;entryX=0.5;entryY=0;entryDx=0;entryDy=0;entryPerimeter=0;" parent="1" source="7B3wJfjYLKhbsEHf2mkx-30" target="7B3wJfjYLKhbsEHf2mkx-31" edge="1">
          <mxGeometry relative="1" as="geometry" />
        </mxCell>
        <mxCell id="7B3wJfjYLKhbsEHf2mkx-53" style="edgeStyle=orthogonalEdgeStyle;rounded=0;orthogonalLoop=1;jettySize=auto;html=1;entryX=0.544;entryY=0.031;entryDx=0;entryDy=0;entryPerimeter=0;" parent="1" source="7B3wJfjYLKhbsEHf2mkx-33" target="7B3wJfjYLKhbsEHf2mkx-34" edge="1">
          <mxGeometry relative="1" as="geometry" />
        </mxCell>
        <mxCell id="7B3wJfjYLKhbsEHf2mkx-136" style="edgeStyle=orthogonalEdgeStyle;rounded=0;orthogonalLoop=1;jettySize=auto;html=1;entryX=0;entryY=0.5;entryDx=0;entryDy=0;entryPerimeter=0;" parent="1" source="7B3wJfjYLKhbsEHf2mkx-58" target="7B3wJfjYLKhbsEHf2mkx-10" edge="1">
          <mxGeometry relative="1" as="geometry">
            <mxPoint x="-140" y="711" as="targetPoint" />
            <Array as="points">
              <mxPoint x="-140" y="591" />
              <mxPoint x="-140" y="431" />
            </Array>
          </mxGeometry>
        </mxCell>
        <mxCell id="7B3wJfjYLKhbsEHf2mkx-58" value="Output &quot;User&amp;nbsp;&lt;div&gt;tidak ditemukan&quot;&lt;/div&gt;" style="shape=parallelogram;html=1;strokeWidth=2;perimeter=parallelogramPerimeter;whiteSpace=wrap;rounded=1;arcSize=12;size=0.23;" parent="1" vertex="1">
          <mxGeometry x="76" y="561" width="140" height="60" as="geometry" />
        </mxCell>
        <mxCell id="7B3wJfjYLKhbsEHf2mkx-65" value="" style="edgeStyle=orthogonalEdgeStyle;rounded=0;orthogonalLoop=1;jettySize=auto;html=1;" parent="1" source="7B3wJfjYLKhbsEHf2mkx-60" target="7B3wJfjYLKhbsEHf2mkx-62" edge="1">
          <mxGeometry relative="1" as="geometry" />
        </mxCell>
        <mxCell id="7B3wJfjYLKhbsEHf2mkx-79" value="" style="edgeStyle=orthogonalEdgeStyle;rounded=0;orthogonalLoop=1;jettySize=auto;html=1;" parent="1" source="7B3wJfjYLKhbsEHf2mkx-60" target="7B3wJfjYLKhbsEHf2mkx-78" edge="1">
          <mxGeometry relative="1" as="geometry" />
        </mxCell>
        <mxCell id="7B3wJfjYLKhbsEHf2mkx-60" value="perintah ==&lt;div&gt;hapus?&lt;/div&gt;" style="strokeWidth=2;html=1;shape=mxgraph.flowchart.decision;whiteSpace=wrap;" parent="1" vertex="1">
          <mxGeometry x="444" y="1351" width="112" height="100" as="geometry" />
        </mxCell>
        <mxCell id="7B3wJfjYLKhbsEHf2mkx-67" value="" style="edgeStyle=orthogonalEdgeStyle;rounded=0;orthogonalLoop=1;jettySize=auto;html=1;" parent="1" source="7B3wJfjYLKhbsEHf2mkx-62" target="7B3wJfjYLKhbsEHf2mkx-66" edge="1">
          <mxGeometry relative="1" as="geometry" />
        </mxCell>
        <mxCell id="7B3wJfjYLKhbsEHf2mkx-62" value="Output &quot;Masukkan&amp;nbsp;&lt;div&gt;ID user: &quot;&lt;/div&gt;" style="shape=parallelogram;html=1;strokeWidth=2;perimeter=parallelogramPerimeter;whiteSpace=wrap;rounded=1;arcSize=12;size=0.23;" parent="1" vertex="1">
          <mxGeometry x="610" y="1371" width="140" height="60" as="geometry" />
        </mxCell>
        <mxCell id="7B3wJfjYLKhbsEHf2mkx-64" style="edgeStyle=orthogonalEdgeStyle;rounded=0;orthogonalLoop=1;jettySize=auto;html=1;exitX=0.5;exitY=1;exitDx=0;exitDy=0;" parent="1" source="7B3wJfjYLKhbsEHf2mkx-62" target="7B3wJfjYLKhbsEHf2mkx-62" edge="1">
          <mxGeometry relative="1" as="geometry" />
        </mxCell>
        <mxCell id="7B3wJfjYLKhbsEHf2mkx-69" value="" style="edgeStyle=orthogonalEdgeStyle;rounded=0;orthogonalLoop=1;jettySize=auto;html=1;" parent="1" source="7B3wJfjYLKhbsEHf2mkx-66" target="7B3wJfjYLKhbsEHf2mkx-68" edge="1">
          <mxGeometry relative="1" as="geometry" />
        </mxCell>
        <mxCell id="7B3wJfjYLKhbsEHf2mkx-66" value="Input id user" style="shape=parallelogram;html=1;strokeWidth=2;perimeter=parallelogramPerimeter;whiteSpace=wrap;rounded=1;arcSize=12;size=0.23;" parent="1" vertex="1">
          <mxGeometry x="610" y="1501" width="140" height="60" as="geometry" />
        </mxCell>
        <mxCell id="7B3wJfjYLKhbsEHf2mkx-71" value="" style="edgeStyle=orthogonalEdgeStyle;rounded=0;orthogonalLoop=1;jettySize=auto;html=1;" parent="1" source="7B3wJfjYLKhbsEHf2mkx-68" target="7B3wJfjYLKhbsEHf2mkx-70" edge="1">
          <mxGeometry relative="1" as="geometry" />
        </mxCell>
        <mxCell id="7B3wJfjYLKhbsEHf2mkx-68" value="boolean removed =&amp;nbsp;&lt;div&gt;daftarUser.removedif&lt;/div&gt;&lt;div&gt;(user.id == id user)&lt;/div&gt;" style="rounded=1;whiteSpace=wrap;html=1;absoluteArcSize=1;arcSize=14;strokeWidth=2;" parent="1" vertex="1">
          <mxGeometry x="620" y="1601" width="120" height="60" as="geometry" />
        </mxCell>
        <mxCell id="7B3wJfjYLKhbsEHf2mkx-75" style="edgeStyle=orthogonalEdgeStyle;rounded=0;orthogonalLoop=1;jettySize=auto;html=1;" parent="1" source="7B3wJfjYLKhbsEHf2mkx-70" target="7B3wJfjYLKhbsEHf2mkx-74" edge="1">
          <mxGeometry relative="1" as="geometry" />
        </mxCell>
        <mxCell id="7B3wJfjYLKhbsEHf2mkx-77" style="edgeStyle=orthogonalEdgeStyle;rounded=0;orthogonalLoop=1;jettySize=auto;html=1;" parent="1" source="7B3wJfjYLKhbsEHf2mkx-70" target="7B3wJfjYLKhbsEHf2mkx-76" edge="1">
          <mxGeometry relative="1" as="geometry" />
        </mxCell>
        <mxCell id="7B3wJfjYLKhbsEHf2mkx-70" value="removed ==&lt;div&gt;true?&lt;/div&gt;" style="strokeWidth=2;html=1;shape=mxgraph.flowchart.decision;whiteSpace=wrap;" parent="1" vertex="1">
          <mxGeometry x="624" y="1691" width="112" height="100" as="geometry" />
        </mxCell>
        <mxCell id="7B3wJfjYLKhbsEHf2mkx-116" style="edgeStyle=orthogonalEdgeStyle;rounded=0;orthogonalLoop=1;jettySize=auto;html=1;" parent="1" source="7B3wJfjYLKhbsEHf2mkx-74" edge="1">
          <mxGeometry relative="1" as="geometry">
            <mxPoint x="840" y="1961" as="targetPoint" />
          </mxGeometry>
        </mxCell>
        <mxCell id="7B3wJfjYLKhbsEHf2mkx-74" value="Output &quot;User&lt;div&gt;berhasil dihapus&quot;&lt;/div&gt;" style="shape=parallelogram;html=1;strokeWidth=2;perimeter=parallelogramPerimeter;whiteSpace=wrap;rounded=1;arcSize=12;size=0.23;" parent="1" vertex="1">
          <mxGeometry x="770" y="1711" width="140" height="60" as="geometry" />
        </mxCell>
        <mxCell id="7B3wJfjYLKhbsEHf2mkx-115" style="edgeStyle=orthogonalEdgeStyle;rounded=0;orthogonalLoop=1;jettySize=auto;html=1;" parent="1" source="7B3wJfjYLKhbsEHf2mkx-76" edge="1">
          <mxGeometry relative="1" as="geometry">
            <mxPoint x="680" y="1961" as="targetPoint" />
          </mxGeometry>
        </mxCell>
        <mxCell id="7B3wJfjYLKhbsEHf2mkx-76" value="Output &quot;User&lt;div&gt;tidak ditemukan&quot;&lt;/div&gt;" style="shape=parallelogram;html=1;strokeWidth=2;perimeter=parallelogramPerimeter;whiteSpace=wrap;rounded=1;arcSize=12;size=0.23;" parent="1" vertex="1">
          <mxGeometry x="610" y="1841" width="140" height="60" as="geometry" />
        </mxCell>
        <mxCell id="7B3wJfjYLKhbsEHf2mkx-81" value="" style="edgeStyle=orthogonalEdgeStyle;rounded=0;orthogonalLoop=1;jettySize=auto;html=1;" parent="1" source="7B3wJfjYLKhbsEHf2mkx-78" target="7B3wJfjYLKhbsEHf2mkx-80" edge="1">
          <mxGeometry relative="1" as="geometry" />
        </mxCell>
        <mxCell id="7B3wJfjYLKhbsEHf2mkx-78" value="perintah ==&lt;div&gt;tampil?&lt;/div&gt;" style="strokeWidth=2;html=1;shape=mxgraph.flowchart.decision;whiteSpace=wrap;" parent="1" vertex="1">
          <mxGeometry x="444.5" y="1531" width="112" height="100" as="geometry" />
        </mxCell>
        <mxCell id="7B3wJfjYLKhbsEHf2mkx-83" style="edgeStyle=orthogonalEdgeStyle;rounded=0;orthogonalLoop=1;jettySize=auto;html=1;entryX=0.5;entryY=1;entryDx=0;entryDy=0;" parent="1" source="7B3wJfjYLKhbsEHf2mkx-80" target="7B3wJfjYLKhbsEHf2mkx-82" edge="1">
          <mxGeometry relative="1" as="geometry" />
        </mxCell>
        <mxCell id="7B3wJfjYLKhbsEHf2mkx-80" value="daftarUser ==&lt;div&gt;kosong?&lt;/div&gt;" style="strokeWidth=2;html=1;shape=mxgraph.flowchart.decision;whiteSpace=wrap;" parent="1" vertex="1">
          <mxGeometry x="280" y="1531" width="112" height="100" as="geometry" />
        </mxCell>
        <mxCell id="7B3wJfjYLKhbsEHf2mkx-82" value="Output &quot;Belum&lt;div&gt;&lt;span style=&quot;background-color: transparent; color: light-dark(rgb(0, 0, 0), rgb(255, 255, 255));&quot;&gt;ada user&lt;/span&gt;&lt;/div&gt;&lt;div&gt;&lt;span style=&quot;background-color: transparent; color: light-dark(rgb(0, 0, 0), rgb(255, 255, 255));&quot;&gt;terdaftar &quot;&lt;/span&gt;&lt;/div&gt;" style="shape=parallelogram;html=1;strokeWidth=2;perimeter=parallelogramPerimeter;whiteSpace=wrap;rounded=1;arcSize=12;size=0.23;" parent="1" vertex="1">
          <mxGeometry x="266" y="1411" width="140" height="60" as="geometry" />
        </mxCell>
        <mxCell id="7B3wJfjYLKhbsEHf2mkx-87" style="edgeStyle=orthogonalEdgeStyle;rounded=0;orthogonalLoop=1;jettySize=auto;html=1;" parent="1" source="7B3wJfjYLKhbsEHf2mkx-84" target="7B3wJfjYLKhbsEHf2mkx-86" edge="1">
          <mxGeometry relative="1" as="geometry" />
        </mxCell>
        <mxCell id="S8WsqKg6DrkwX5ltBLO2-6" style="edgeStyle=orthogonalEdgeStyle;rounded=0;orthogonalLoop=1;jettySize=auto;html=1;exitX=0.5;exitY=1;exitDx=0;exitDy=0;exitPerimeter=0;entryX=0;entryY=0.5;entryDx=0;entryDy=0;entryPerimeter=0;" parent="1" source="7B3wJfjYLKhbsEHf2mkx-84" target="7B3wJfjYLKhbsEHf2mkx-10" edge="1">
          <mxGeometry relative="1" as="geometry">
            <mxPoint x="-140" y="1561" as="targetPoint" />
            <Array as="points">
              <mxPoint x="176" y="1671" />
              <mxPoint x="-140" y="1671" />
              <mxPoint x="-140" y="431" />
            </Array>
          </mxGeometry>
        </mxCell>
        <mxCell id="7B3wJfjYLKhbsEHf2mkx-84" value="User ada di&lt;div&gt;daftar user?&lt;/div&gt;" style="strokeWidth=2;html=1;shape=mxgraph.flowchart.decision;whiteSpace=wrap;" parent="1" vertex="1">
          <mxGeometry x="120" y="1531" width="112" height="100" as="geometry" />
        </mxCell>
        <mxCell id="7B3wJfjYLKhbsEHf2mkx-85" style="edgeStyle=orthogonalEdgeStyle;rounded=0;orthogonalLoop=1;jettySize=auto;html=1;entryX=1;entryY=0.5;entryDx=0;entryDy=0;entryPerimeter=0;" parent="1" source="7B3wJfjYLKhbsEHf2mkx-80" target="7B3wJfjYLKhbsEHf2mkx-84" edge="1">
          <mxGeometry relative="1" as="geometry" />
        </mxCell>
        <mxCell id="7B3wJfjYLKhbsEHf2mkx-86" value="Output user" style="shape=parallelogram;html=1;strokeWidth=2;perimeter=parallelogramPerimeter;whiteSpace=wrap;rounded=1;arcSize=12;size=0.23;" parent="1" vertex="1">
          <mxGeometry x="-50" y="1551" width="140" height="60" as="geometry" />
        </mxCell>
        <mxCell id="7B3wJfjYLKhbsEHf2mkx-91" style="edgeStyle=orthogonalEdgeStyle;rounded=0;orthogonalLoop=1;jettySize=auto;html=1;" parent="1" source="7B3wJfjYLKhbsEHf2mkx-89" target="7B3wJfjYLKhbsEHf2mkx-90" edge="1">
          <mxGeometry relative="1" as="geometry" />
        </mxCell>
        <mxCell id="7B3wJfjYLKhbsEHf2mkx-97" style="edgeStyle=orthogonalEdgeStyle;rounded=0;orthogonalLoop=1;jettySize=auto;html=1;entryX=0.5;entryY=0;entryDx=0;entryDy=0;" parent="1" source="7B3wJfjYLKhbsEHf2mkx-89" target="7B3wJfjYLKhbsEHf2mkx-96" edge="1">
          <mxGeometry relative="1" as="geometry" />
        </mxCell>
        <mxCell id="7B3wJfjYLKhbsEHf2mkx-89" value="perintah ==&lt;div&gt;keluar?&lt;/div&gt;" style="strokeWidth=2;html=1;shape=mxgraph.flowchart.decision;whiteSpace=wrap;" parent="1" vertex="1">
          <mxGeometry x="444.5" y="1681" width="112" height="100" as="geometry" />
        </mxCell>
        <mxCell id="7B3wJfjYLKhbsEHf2mkx-94" style="edgeStyle=orthogonalEdgeStyle;rounded=0;orthogonalLoop=1;jettySize=auto;html=1;" parent="1" source="7B3wJfjYLKhbsEHf2mkx-90" target="7B3wJfjYLKhbsEHf2mkx-92" edge="1">
          <mxGeometry relative="1" as="geometry">
            <Array as="points">
              <mxPoint x="340" y="2041" />
            </Array>
          </mxGeometry>
        </mxCell>
        <mxCell id="7B3wJfjYLKhbsEHf2mkx-90" value="next = false" style="rounded=1;whiteSpace=wrap;html=1;absoluteArcSize=1;arcSize=14;strokeWidth=2;" parent="1" vertex="1">
          <mxGeometry x="280" y="1701" width="120" height="60" as="geometry" />
        </mxCell>
        <mxCell id="7B3wJfjYLKhbsEHf2mkx-92" value="Output &quot;Program&lt;div&gt;&lt;span style=&quot;background-color: transparent; color: light-dark(rgb(0, 0, 0), rgb(255, 255, 255));&quot;&gt;selesai&quot;&lt;/span&gt;&lt;/div&gt;" style="shape=parallelogram;html=1;strokeWidth=2;perimeter=parallelogramPerimeter;whiteSpace=wrap;rounded=1;arcSize=12;size=0.23;" parent="1" vertex="1">
          <mxGeometry x="770" y="2011" width="140" height="60" as="geometry" />
        </mxCell>
        <mxCell id="7B3wJfjYLKhbsEHf2mkx-95" style="edgeStyle=orthogonalEdgeStyle;rounded=0;orthogonalLoop=1;jettySize=auto;html=1;entryX=0.5;entryY=0;entryDx=0;entryDy=0;entryPerimeter=0;" parent="1" source="7B3wJfjYLKhbsEHf2mkx-78" target="7B3wJfjYLKhbsEHf2mkx-89" edge="1">
          <mxGeometry relative="1" as="geometry" />
        </mxCell>
        <mxCell id="7B3wJfjYLKhbsEHf2mkx-114" style="edgeStyle=orthogonalEdgeStyle;rounded=0;orthogonalLoop=1;jettySize=auto;html=1;" parent="1" source="7B3wJfjYLKhbsEHf2mkx-96" edge="1">
          <mxGeometry relative="1" as="geometry">
            <mxPoint x="500.5" y="1961" as="targetPoint" />
          </mxGeometry>
        </mxCell>
        <mxCell id="7B3wJfjYLKhbsEHf2mkx-96" value="Output &quot;Perintah&lt;div&gt;&lt;span style=&quot;background-color: transparent; color: light-dark(rgb(0, 0, 0), rgb(255, 255, 255));&quot;&gt;tidak valid&quot;&lt;/span&gt;&lt;/div&gt;" style="shape=parallelogram;html=1;strokeWidth=2;perimeter=parallelogramPerimeter;whiteSpace=wrap;rounded=1;arcSize=12;size=0.23;" parent="1" vertex="1">
          <mxGeometry x="430.5" y="1836" width="140" height="60" as="geometry" />
        </mxCell>
        <mxCell id="7B3wJfjYLKhbsEHf2mkx-98" value="End" style="strokeWidth=2;html=1;shape=mxgraph.flowchart.terminator;whiteSpace=wrap;strokeColor=default;" parent="1" vertex="1">
          <mxGeometry x="635" y="406" width="105" height="50" as="geometry" />
        </mxCell>
        <mxCell id="7B3wJfjYLKhbsEHf2mkx-105" style="edgeStyle=orthogonalEdgeStyle;rounded=0;orthogonalLoop=1;jettySize=auto;html=1;entryX=0.5;entryY=0;entryDx=0;entryDy=0;entryPerimeter=0;" parent="1" source="7B3wJfjYLKhbsEHf2mkx-13" target="7B3wJfjYLKhbsEHf2mkx-12" edge="1">
          <mxGeometry relative="1" as="geometry" />
        </mxCell>
        <mxCell id="7B3wJfjYLKhbsEHf2mkx-106" style="edgeStyle=orthogonalEdgeStyle;rounded=0;orthogonalLoop=1;jettySize=auto;html=1;entryX=0.5;entryY=0;entryDx=0;entryDy=0;entryPerimeter=0;" parent="1" source="7B3wJfjYLKhbsEHf2mkx-9" target="7B3wJfjYLKhbsEHf2mkx-10" edge="1">
          <mxGeometry relative="1" as="geometry" />
        </mxCell>
        <mxCell id="7B3wJfjYLKhbsEHf2mkx-110" style="edgeStyle=orthogonalEdgeStyle;rounded=0;orthogonalLoop=1;jettySize=auto;html=1;entryX=1;entryY=0.5;entryDx=0;entryDy=0;entryPerimeter=0;" parent="1" source="7B3wJfjYLKhbsEHf2mkx-92" target="7B3wJfjYLKhbsEHf2mkx-98" edge="1">
          <mxGeometry relative="1" as="geometry">
            <Array as="points">
              <mxPoint x="990" y="2041" />
              <mxPoint x="990" y="431" />
            </Array>
          </mxGeometry>
        </mxCell>
        <mxCell id="7B3wJfjYLKhbsEHf2mkx-111" style="edgeStyle=orthogonalEdgeStyle;rounded=0;orthogonalLoop=1;jettySize=auto;html=1;entryX=0;entryY=0.5;entryDx=0;entryDy=0;entryPerimeter=0;" parent="1" source="7B3wJfjYLKhbsEHf2mkx-10" target="7B3wJfjYLKhbsEHf2mkx-98" edge="1">
          <mxGeometry relative="1" as="geometry" />
        </mxCell>
        <mxCell id="7B3wJfjYLKhbsEHf2mkx-113" style="edgeStyle=orthogonalEdgeStyle;rounded=0;orthogonalLoop=1;jettySize=auto;html=1;entryX=0;entryY=0.5;entryDx=0;entryDy=0;entryPerimeter=0;exitX=1;exitY=0.5;exitDx=0;exitDy=0;" parent="1" source="7B3wJfjYLKhbsEHf2mkx-23" target="7B3wJfjYLKhbsEHf2mkx-10" edge="1">
          <mxGeometry relative="1" as="geometry">
            <mxPoint x="793.8999999999996" y="1251" as="sourcePoint" />
            <mxPoint x="504" y="431" as="targetPoint" />
            <Array as="points">
              <mxPoint x="950" y="1251" />
              <mxPoint x="950" y="1961" />
              <mxPoint x="-140" y="1961" />
              <mxPoint x="-140" y="431" />
            </Array>
          </mxGeometry>
        </mxCell>
        <mxCell id="7B3wJfjYLKhbsEHf2mkx-120" value="Y" style="text;html=1;align=center;verticalAlign=middle;whiteSpace=wrap;rounded=0;" parent="1" vertex="1">
          <mxGeometry x="470" y="481" width="20" height="20" as="geometry" />
        </mxCell>
        <mxCell id="7B3wJfjYLKhbsEHf2mkx-121" value="N" style="text;html=1;align=center;verticalAlign=middle;whiteSpace=wrap;rounded=0;" parent="1" vertex="1">
          <mxGeometry x="556.5" y="406" width="20" height="20" as="geometry" />
        </mxCell>
        <mxCell id="7B3wJfjYLKhbsEHf2mkx-122" value="Y" style="text;html=1;align=center;verticalAlign=middle;whiteSpace=wrap;rounded=0;" parent="1" vertex="1">
          <mxGeometry x="560.5" y="731" width="20" height="20" as="geometry" />
        </mxCell>
        <mxCell id="7B3wJfjYLKhbsEHf2mkx-123" value="N" style="text;html=1;align=center;verticalAlign=middle;whiteSpace=wrap;rounded=0;" parent="1" vertex="1">
          <mxGeometry x="470" y="801" width="20" height="20" as="geometry" />
        </mxCell>
        <mxCell id="7B3wJfjYLKhbsEHf2mkx-124" value="Y" style="text;html=1;align=center;verticalAlign=middle;whiteSpace=wrap;rounded=0;" parent="1" vertex="1">
          <mxGeometry x="420.5" y="861" width="20" height="20" as="geometry" />
        </mxCell>
        <mxCell id="7B3wJfjYLKhbsEHf2mkx-125" value="N" style="text;html=1;align=center;verticalAlign=middle;whiteSpace=wrap;rounded=0;" parent="1" vertex="1">
          <mxGeometry x="470" y="931" width="20" height="20" as="geometry" />
        </mxCell>
        <mxCell id="7B3wJfjYLKhbsEHf2mkx-127" value="Y" style="text;html=1;align=center;verticalAlign=middle;whiteSpace=wrap;rounded=0;" parent="1" vertex="1">
          <mxGeometry x="556.5" y="1381" width="20" height="20" as="geometry" />
        </mxCell>
        <mxCell id="7B3wJfjYLKhbsEHf2mkx-128" value="N" style="text;html=1;align=center;verticalAlign=middle;whiteSpace=wrap;rounded=0;" parent="1" vertex="1">
          <mxGeometry x="470" y="1451" width="20" height="20" as="geometry" />
        </mxCell>
        <mxCell id="7B3wJfjYLKhbsEHf2mkx-129" value="N" style="text;html=1;align=center;verticalAlign=middle;whiteSpace=wrap;rounded=0;" parent="1" vertex="1">
          <mxGeometry x="150" y="771" width="20" height="20" as="geometry" />
        </mxCell>
        <mxCell id="7B3wJfjYLKhbsEHf2mkx-130" value="N" style="text;html=1;align=center;verticalAlign=middle;whiteSpace=wrap;rounded=0;" parent="1" vertex="1">
          <mxGeometry x="202" y="941" width="20" height="20" as="geometry" />
        </mxCell>
        <mxCell id="7B3wJfjYLKhbsEHf2mkx-131" value="Y" style="text;html=1;align=center;verticalAlign=middle;whiteSpace=wrap;rounded=0;" parent="1" vertex="1">
          <mxGeometry x="120" y="1021" width="20" height="20" as="geometry" />
        </mxCell>
        <mxCell id="7B3wJfjYLKhbsEHf2mkx-132" value="Y" style="text;html=1;align=center;verticalAlign=middle;whiteSpace=wrap;rounded=0;" parent="1" vertex="1">
          <mxGeometry x="120" y="891" width="20" height="20" as="geometry" />
        </mxCell>
        <mxCell id="7B3wJfjYLKhbsEHf2mkx-134" value="Y" style="text;html=1;align=center;verticalAlign=middle;whiteSpace=wrap;rounded=0;" parent="1" vertex="1">
          <mxGeometry x="150" y="641" width="20" height="20" as="geometry" />
        </mxCell>
        <mxCell id="7B3wJfjYLKhbsEHf2mkx-139" value="Y" style="text;html=1;align=center;verticalAlign=middle;whiteSpace=wrap;rounded=0;" parent="1" vertex="1">
          <mxGeometry x="420.5" y="1561" width="20" height="20" as="geometry" />
        </mxCell>
        <mxCell id="7B3wJfjYLKhbsEHf2mkx-140" value="N" style="text;html=1;align=center;verticalAlign=middle;whiteSpace=wrap;rounded=0;" parent="1" vertex="1">
          <mxGeometry x="510" y="1631" width="20" height="20" as="geometry" />
        </mxCell>
        <mxCell id="7B3wJfjYLKhbsEHf2mkx-141" value="Y" style="text;html=1;align=center;verticalAlign=middle;whiteSpace=wrap;rounded=0;" parent="1" vertex="1">
          <mxGeometry x="310" y="1511" width="20" height="20" as="geometry" />
        </mxCell>
        <mxCell id="7B3wJfjYLKhbsEHf2mkx-142" value="N" style="text;html=1;align=center;verticalAlign=middle;whiteSpace=wrap;rounded=0;" parent="1" vertex="1">
          <mxGeometry x="266" y="1591" width="20" height="20" as="geometry" />
        </mxCell>
        <mxCell id="7B3wJfjYLKhbsEHf2mkx-143" value="Y" style="text;html=1;align=center;verticalAlign=middle;whiteSpace=wrap;rounded=0;" parent="1" vertex="1">
          <mxGeometry x="93" y="1561" width="20" height="20" as="geometry" />
        </mxCell>
        <mxCell id="7B3wJfjYLKhbsEHf2mkx-144" style="edgeStyle=orthogonalEdgeStyle;rounded=0;orthogonalLoop=1;jettySize=auto;html=1;entryX=0.5;entryY=0;entryDx=0;entryDy=0;entryPerimeter=0;" parent="1" source="7B3wJfjYLKhbsEHf2mkx-86" target="7B3wJfjYLKhbsEHf2mkx-84" edge="1">
          <mxGeometry relative="1" as="geometry">
            <Array as="points">
              <mxPoint x="20" y="1471" />
              <mxPoint x="176" y="1471" />
            </Array>
          </mxGeometry>
        </mxCell>
        <mxCell id="7B3wJfjYLKhbsEHf2mkx-146" value="N" style="text;html=1;align=center;verticalAlign=middle;whiteSpace=wrap;rounded=0;" parent="1" vertex="1">
          <mxGeometry x="510" y="1781" width="20" height="20" as="geometry" />
        </mxCell>
        <mxCell id="7B3wJfjYLKhbsEHf2mkx-147" value="Y" style="text;html=1;align=center;verticalAlign=middle;whiteSpace=wrap;rounded=0;" parent="1" vertex="1">
          <mxGeometry x="420.5" y="1711" width="20" height="20" as="geometry" />
        </mxCell>
        <mxCell id="7B3wJfjYLKhbsEHf2mkx-148" value="N" style="text;html=1;align=center;verticalAlign=middle;whiteSpace=wrap;rounded=0;" parent="1" vertex="1">
          <mxGeometry x="650" y="1791" width="20" height="20" as="geometry" />
        </mxCell>
        <mxCell id="7B3wJfjYLKhbsEHf2mkx-149" value="Y" style="text;html=1;align=center;verticalAlign=middle;whiteSpace=wrap;rounded=0;" parent="1" vertex="1">
          <mxGeometry x="740" y="1721" width="20" height="20" as="geometry" />
        </mxCell>
        <mxCell id="S8WsqKg6DrkwX5ltBLO2-3" value="N" style="text;html=1;align=center;verticalAlign=middle;whiteSpace=wrap;rounded=0;" parent="1" vertex="1">
          <mxGeometry x="60" y="691" width="20" height="20" as="geometry" />
        </mxCell>
        <mxCell id="S8WsqKg6DrkwX5ltBLO2-4" value="N" style="text;html=1;align=center;verticalAlign=middle;whiteSpace=wrap;rounded=0;" parent="1" vertex="1">
          <mxGeometry x="150" y="1631" width="20" height="20" as="geometry" />
        </mxCell>
        <mxCell id="S8WsqKg6DrkwX5ltBLO2-5" style="edgeStyle=orthogonalEdgeStyle;rounded=0;orthogonalLoop=1;jettySize=auto;html=1;entryX=0;entryY=0.5;entryDx=0;entryDy=0;entryPerimeter=0;" parent="1" source="7B3wJfjYLKhbsEHf2mkx-82" target="7B3wJfjYLKhbsEHf2mkx-10" edge="1">
          <mxGeometry relative="1" as="geometry">
            <Array as="points">
              <mxPoint x="-140" y="1441" />
              <mxPoint x="-140" y="431" />
            </Array>
          </mxGeometry>
        </mxCell>
        <mxCell id="S8WsqKg6DrkwX5ltBLO2-8" style="edgeStyle=orthogonalEdgeStyle;rounded=0;orthogonalLoop=1;jettySize=auto;html=1;entryX=1;entryY=0.5;entryDx=0;entryDy=0;entryPerimeter=0;" parent="1" source="7B3wJfjYLKhbsEHf2mkx-31" target="7B3wJfjYLKhbsEHf2mkx-30" edge="1">
          <mxGeometry relative="1" as="geometry">
            <Array as="points">
              <mxPoint x="230" y="971.0000000000002" />
              <mxPoint x="230" y="841" />
            </Array>
          </mxGeometry>
        </mxCell>
        <mxCell id="Ob-BJAODZvMbobVIV2ID-2" style="edgeStyle=orthogonalEdgeStyle;rounded=0;orthogonalLoop=1;jettySize=auto;html=1;entryX=0;entryY=0.5;entryDx=0;entryDy=0;entryPerimeter=0;" parent="1" source="7B3wJfjYLKhbsEHf2mkx-37" target="7B3wJfjYLKhbsEHf2mkx-30" edge="1">
          <mxGeometry relative="1" as="geometry">
            <Array as="points">
              <mxPoint x="-20" y="711" />
              <mxPoint x="-20" y="841" />
            </Array>
          </mxGeometry>
        </mxCell>
        <mxCell id="KcXVoCcUfBqnhCYP825a-1" style="edgeStyle=orthogonalEdgeStyle;rounded=0;orthogonalLoop=1;jettySize=auto;html=1;entryX=0;entryY=0.5;entryDx=0;entryDy=0;entryPerimeter=0;" parent="1" source="7B3wJfjYLKhbsEHf2mkx-36" target="7B3wJfjYLKhbsEHf2mkx-30" edge="1">
          <mxGeometry relative="1" as="geometry">
            <Array as="points">
              <mxPoint x="-20" y="841" />
            </Array>
          </mxGeometry>
        </mxCell>
        <mxCell id="oM6sk9AgnjZypYYAeCpo-1" value="&lt;div style=&quot;text-align: left;&quot;&gt;&lt;b style=&quot;background-color: initial;&quot;&gt;&lt;font style=&quot;font-size: 20px;&quot;&gt;Flowchart&amp;nbsp;&lt;/font&gt;&lt;/b&gt;&lt;/div&gt;&lt;div style=&quot;text-align: left;&quot;&gt;&lt;b&gt;&lt;font style=&quot;&quot;&gt;&lt;font style=&quot;font-size: 20px;&quot;&gt;Manage User LITerm (CRUD)&lt;/font&gt;&lt;br&gt;&lt;/font&gt;&lt;/b&gt;&lt;/div&gt;" style="text;html=1;align=center;verticalAlign=middle;whiteSpace=wrap;rounded=0;" vertex="1" parent="1">
          <mxGeometry x="-168" y="121" width="330" height="30" as="geometry" />
        </mxCell>
      </root>
    </mxGraphModel>
  </diagram>
  <diagram id="d3yIhi_8LugYBuKEkbw9" name="up to date crud">
    <mxGraphModel dx="5250" dy="2785" grid="1" gridSize="10" guides="1" tooltips="1" connect="1" arrows="1" fold="1" page="1" pageScale="1" pageWidth="850" pageHeight="1100" math="0" shadow="0">
      <root>
        <mxCell id="0" />
        <mxCell id="1" parent="0" />
        <mxCell id="1-rIj8gA_Ch3eZ7NqGmP-56" value="" style="edgeStyle=orthogonalEdgeStyle;rounded=0;orthogonalLoop=1;jettySize=auto;html=1;" edge="1" parent="1" source="unkGjm1nk-C7PKRg2vda-11" target="_8VAfJGAULEPuui99Dgs-2">
          <mxGeometry relative="1" as="geometry" />
        </mxCell>
        <mxCell id="unkGjm1nk-C7PKRg2vda-11" value="Start" style="strokeWidth=2;html=1;shape=mxgraph.flowchart.terminator;whiteSpace=wrap;strokeColor=default;" vertex="1" parent="1">
          <mxGeometry x="48" y="70" width="105" height="50" as="geometry" />
        </mxCell>
        <mxCell id="1-rIj8gA_Ch3eZ7NqGmP-57" value="" style="edgeStyle=orthogonalEdgeStyle;rounded=0;orthogonalLoop=1;jettySize=auto;html=1;" edge="1" parent="1" source="_8VAfJGAULEPuui99Dgs-2" target="_8VAfJGAULEPuui99Dgs-3">
          <mxGeometry relative="1" as="geometry" />
        </mxCell>
        <mxCell id="_8VAfJGAULEPuui99Dgs-2" value="Inisialisasi array list dan scanner" style="rounded=1;whiteSpace=wrap;html=1;absoluteArcSize=1;arcSize=14;strokeWidth=2;" vertex="1" parent="1">
          <mxGeometry x="40" y="157.5" width="120" height="60" as="geometry" />
        </mxCell>
        <mxCell id="1-rIj8gA_Ch3eZ7NqGmP-58" value="" style="edgeStyle=orthogonalEdgeStyle;rounded=0;orthogonalLoop=1;jettySize=auto;html=1;" edge="1" parent="1" source="_8VAfJGAULEPuui99Dgs-3" target="1-rIj8gA_Ch3eZ7NqGmP-1">
          <mxGeometry relative="1" as="geometry" />
        </mxCell>
        <mxCell id="_8VAfJGAULEPuui99Dgs-3" value="boolean running = true" style="rounded=1;whiteSpace=wrap;html=1;absoluteArcSize=1;arcSize=14;strokeWidth=2;" vertex="1" parent="1">
          <mxGeometry x="40" y="252.5" width="120" height="60" as="geometry" />
        </mxCell>
        <mxCell id="1-rIj8gA_Ch3eZ7NqGmP-3" value="" style="edgeStyle=orthogonalEdgeStyle;rounded=0;orthogonalLoop=1;jettySize=auto;html=1;" edge="1" parent="1" source="1-rIj8gA_Ch3eZ7NqGmP-1" target="1-rIj8gA_Ch3eZ7NqGmP-2">
          <mxGeometry relative="1" as="geometry" />
        </mxCell>
        <mxCell id="1-rIj8gA_Ch3eZ7NqGmP-59" value="" style="edgeStyle=orthogonalEdgeStyle;rounded=0;orthogonalLoop=1;jettySize=auto;html=1;" edge="1" parent="1" source="1-rIj8gA_Ch3eZ7NqGmP-1" target="1-rIj8gA_Ch3eZ7NqGmP-55">
          <mxGeometry relative="1" as="geometry" />
        </mxCell>
        <mxCell id="1-rIj8gA_Ch3eZ7NqGmP-1" value="running == true?" style="strokeWidth=2;html=1;shape=mxgraph.flowchart.decision;whiteSpace=wrap;" vertex="1" parent="1">
          <mxGeometry x="44.5" y="345" width="112" height="100" as="geometry" />
        </mxCell>
        <mxCell id="1-rIj8gA_Ch3eZ7NqGmP-5" value="" style="edgeStyle=orthogonalEdgeStyle;rounded=0;orthogonalLoop=1;jettySize=auto;html=1;" edge="1" parent="1" source="1-rIj8gA_Ch3eZ7NqGmP-2" target="1-rIj8gA_Ch3eZ7NqGmP-4">
          <mxGeometry relative="1" as="geometry" />
        </mxCell>
        <mxCell id="1-rIj8gA_Ch3eZ7NqGmP-2" value="Tampilkan menu" style="shape=parallelogram;html=1;strokeWidth=2;perimeter=parallelogramPerimeter;whiteSpace=wrap;rounded=1;arcSize=12;size=0.23;" vertex="1" parent="1">
          <mxGeometry x="185" y="365" width="140" height="60" as="geometry" />
        </mxCell>
        <mxCell id="1-rIj8gA_Ch3eZ7NqGmP-7" value="" style="edgeStyle=orthogonalEdgeStyle;rounded=0;orthogonalLoop=1;jettySize=auto;html=1;" edge="1" parent="1" source="1-rIj8gA_Ch3eZ7NqGmP-4" target="1-rIj8gA_Ch3eZ7NqGmP-6">
          <mxGeometry relative="1" as="geometry" />
        </mxCell>
        <mxCell id="1-rIj8gA_Ch3eZ7NqGmP-53" style="edgeStyle=orthogonalEdgeStyle;rounded=0;orthogonalLoop=1;jettySize=auto;html=1;" edge="1" parent="1" source="1-rIj8gA_Ch3eZ7NqGmP-4" target="1-rIj8gA_Ch3eZ7NqGmP-52">
          <mxGeometry relative="1" as="geometry" />
        </mxCell>
        <mxCell id="1-rIj8gA_Ch3eZ7NqGmP-4" value="error != true?" style="strokeWidth=2;html=1;shape=mxgraph.flowchart.decision;whiteSpace=wrap;" vertex="1" parent="1">
          <mxGeometry x="199" y="455" width="112" height="100" as="geometry" />
        </mxCell>
        <mxCell id="1-rIj8gA_Ch3eZ7NqGmP-26" value="" style="edgeStyle=orthogonalEdgeStyle;rounded=0;orthogonalLoop=1;jettySize=auto;html=1;" edge="1" parent="1" source="1-rIj8gA_Ch3eZ7NqGmP-6" target="1-rIj8gA_Ch3eZ7NqGmP-8">
          <mxGeometry relative="1" as="geometry" />
        </mxCell>
        <mxCell id="1-rIj8gA_Ch3eZ7NqGmP-6" value="Input choice" style="shape=parallelogram;html=1;strokeWidth=2;perimeter=parallelogramPerimeter;whiteSpace=wrap;rounded=1;arcSize=12;size=0.23;" vertex="1" parent="1">
          <mxGeometry x="185" y="585" width="140" height="60" as="geometry" />
        </mxCell>
        <mxCell id="1-rIj8gA_Ch3eZ7NqGmP-27" value="" style="edgeStyle=orthogonalEdgeStyle;rounded=0;orthogonalLoop=1;jettySize=auto;html=1;" edge="1" parent="1" source="1-rIj8gA_Ch3eZ7NqGmP-8" target="1-rIj8gA_Ch3eZ7NqGmP-10">
          <mxGeometry relative="1" as="geometry" />
        </mxCell>
        <mxCell id="1-rIj8gA_Ch3eZ7NqGmP-29" value="" style="edgeStyle=orthogonalEdgeStyle;rounded=0;orthogonalLoop=1;jettySize=auto;html=1;" edge="1" parent="1" source="1-rIj8gA_Ch3eZ7NqGmP-8" target="1-rIj8gA_Ch3eZ7NqGmP-12">
          <mxGeometry relative="1" as="geometry" />
        </mxCell>
        <mxCell id="1-rIj8gA_Ch3eZ7NqGmP-8" value="choice == 1?" style="strokeWidth=2;html=1;shape=mxgraph.flowchart.decision;whiteSpace=wrap;" vertex="1" parent="1">
          <mxGeometry x="199" y="675" width="112" height="100" as="geometry" />
        </mxCell>
        <mxCell id="1-rIj8gA_Ch3eZ7NqGmP-28" value="" style="edgeStyle=orthogonalEdgeStyle;rounded=0;orthogonalLoop=1;jettySize=auto;html=1;" edge="1" parent="1" source="1-rIj8gA_Ch3eZ7NqGmP-10" target="1-rIj8gA_Ch3eZ7NqGmP-11">
          <mxGeometry relative="1" as="geometry" />
        </mxCell>
        <mxCell id="1-rIj8gA_Ch3eZ7NqGmP-10" value="tambahUser()" style="shape=process;whiteSpace=wrap;html=1;backgroundOutline=1;rounded=1;arcSize=7;strokeWidth=2;" vertex="1" parent="1">
          <mxGeometry x="355" y="695" width="120" height="60" as="geometry" />
        </mxCell>
        <mxCell id="1-rIj8gA_Ch3eZ7NqGmP-11" value="break" style="rounded=1;whiteSpace=wrap;html=1;absoluteArcSize=1;arcSize=14;strokeWidth=2;" vertex="1" parent="1">
          <mxGeometry x="520" y="695" width="120" height="60" as="geometry" />
        </mxCell>
        <mxCell id="1-rIj8gA_Ch3eZ7NqGmP-30" value="" style="edgeStyle=orthogonalEdgeStyle;rounded=0;orthogonalLoop=1;jettySize=auto;html=1;" edge="1" parent="1" source="1-rIj8gA_Ch3eZ7NqGmP-12" target="1-rIj8gA_Ch3eZ7NqGmP-14">
          <mxGeometry relative="1" as="geometry" />
        </mxCell>
        <mxCell id="1-rIj8gA_Ch3eZ7NqGmP-32" value="" style="edgeStyle=orthogonalEdgeStyle;rounded=0;orthogonalLoop=1;jettySize=auto;html=1;" edge="1" parent="1" source="1-rIj8gA_Ch3eZ7NqGmP-12" target="1-rIj8gA_Ch3eZ7NqGmP-15">
          <mxGeometry relative="1" as="geometry" />
        </mxCell>
        <mxCell id="1-rIj8gA_Ch3eZ7NqGmP-12" value="choice == 2?" style="strokeWidth=2;html=1;shape=mxgraph.flowchart.decision;whiteSpace=wrap;" vertex="1" parent="1">
          <mxGeometry x="199" y="805" width="112" height="100" as="geometry" />
        </mxCell>
        <mxCell id="1-rIj8gA_Ch3eZ7NqGmP-31" style="edgeStyle=orthogonalEdgeStyle;rounded=0;orthogonalLoop=1;jettySize=auto;html=1;entryX=0.5;entryY=1;entryDx=0;entryDy=0;" edge="1" parent="1" source="1-rIj8gA_Ch3eZ7NqGmP-14" target="1-rIj8gA_Ch3eZ7NqGmP-11">
          <mxGeometry relative="1" as="geometry" />
        </mxCell>
        <mxCell id="1-rIj8gA_Ch3eZ7NqGmP-14" value="tampilkanUser()" style="shape=process;whiteSpace=wrap;html=1;backgroundOutline=1;rounded=1;arcSize=7;strokeWidth=2;" vertex="1" parent="1">
          <mxGeometry x="355" y="825" width="120" height="60" as="geometry" />
        </mxCell>
        <mxCell id="1-rIj8gA_Ch3eZ7NqGmP-33" value="" style="edgeStyle=orthogonalEdgeStyle;rounded=0;orthogonalLoop=1;jettySize=auto;html=1;" edge="1" parent="1" source="1-rIj8gA_Ch3eZ7NqGmP-15" target="1-rIj8gA_Ch3eZ7NqGmP-16">
          <mxGeometry relative="1" as="geometry" />
        </mxCell>
        <mxCell id="1-rIj8gA_Ch3eZ7NqGmP-36" value="" style="edgeStyle=orthogonalEdgeStyle;rounded=0;orthogonalLoop=1;jettySize=auto;html=1;" edge="1" parent="1" source="1-rIj8gA_Ch3eZ7NqGmP-15" target="1-rIj8gA_Ch3eZ7NqGmP-17">
          <mxGeometry relative="1" as="geometry" />
        </mxCell>
        <mxCell id="1-rIj8gA_Ch3eZ7NqGmP-15" value="choice == 3?" style="strokeWidth=2;html=1;shape=mxgraph.flowchart.decision;whiteSpace=wrap;" vertex="1" parent="1">
          <mxGeometry x="199" y="935" width="112" height="100" as="geometry" />
        </mxCell>
        <mxCell id="1-rIj8gA_Ch3eZ7NqGmP-34" style="edgeStyle=orthogonalEdgeStyle;rounded=0;orthogonalLoop=1;jettySize=auto;html=1;entryX=0.5;entryY=1;entryDx=0;entryDy=0;" edge="1" parent="1" source="1-rIj8gA_Ch3eZ7NqGmP-16" target="1-rIj8gA_Ch3eZ7NqGmP-11">
          <mxGeometry relative="1" as="geometry">
            <Array as="points">
              <mxPoint x="580" y="985" />
            </Array>
          </mxGeometry>
        </mxCell>
        <mxCell id="1-rIj8gA_Ch3eZ7NqGmP-16" value="editUser()" style="shape=process;whiteSpace=wrap;html=1;backgroundOutline=1;rounded=1;arcSize=7;strokeWidth=2;" vertex="1" parent="1">
          <mxGeometry x="355" y="955" width="120" height="60" as="geometry" />
        </mxCell>
        <mxCell id="1-rIj8gA_Ch3eZ7NqGmP-37" value="" style="edgeStyle=orthogonalEdgeStyle;rounded=0;orthogonalLoop=1;jettySize=auto;html=1;" edge="1" parent="1" source="1-rIj8gA_Ch3eZ7NqGmP-17" target="1-rIj8gA_Ch3eZ7NqGmP-20">
          <mxGeometry relative="1" as="geometry" />
        </mxCell>
        <mxCell id="1-rIj8gA_Ch3eZ7NqGmP-43" value="" style="edgeStyle=orthogonalEdgeStyle;rounded=0;orthogonalLoop=1;jettySize=auto;html=1;" edge="1" parent="1" source="1-rIj8gA_Ch3eZ7NqGmP-17" target="1-rIj8gA_Ch3eZ7NqGmP-19">
          <mxGeometry relative="1" as="geometry" />
        </mxCell>
        <mxCell id="1-rIj8gA_Ch3eZ7NqGmP-17" value="choice == 4?" style="strokeWidth=2;html=1;shape=mxgraph.flowchart.decision;whiteSpace=wrap;" vertex="1" parent="1">
          <mxGeometry x="199" y="1065" width="112" height="100" as="geometry" />
        </mxCell>
        <mxCell id="1-rIj8gA_Ch3eZ7NqGmP-44" style="edgeStyle=orthogonalEdgeStyle;rounded=0;orthogonalLoop=1;jettySize=auto;html=1;entryX=0.5;entryY=1;entryDx=0;entryDy=0;" edge="1" parent="1" source="1-rIj8gA_Ch3eZ7NqGmP-19" target="1-rIj8gA_Ch3eZ7NqGmP-11">
          <mxGeometry relative="1" as="geometry">
            <mxPoint x="605" y="765" as="targetPoint" />
          </mxGeometry>
        </mxCell>
        <mxCell id="1-rIj8gA_Ch3eZ7NqGmP-19" value="hapusUser()" style="shape=process;whiteSpace=wrap;html=1;backgroundOutline=1;rounded=1;arcSize=7;strokeWidth=2;" vertex="1" parent="1">
          <mxGeometry x="355" y="1085" width="120" height="60" as="geometry" />
        </mxCell>
        <mxCell id="1-rIj8gA_Ch3eZ7NqGmP-38" value="" style="edgeStyle=orthogonalEdgeStyle;rounded=0;orthogonalLoop=1;jettySize=auto;html=1;" edge="1" parent="1" source="1-rIj8gA_Ch3eZ7NqGmP-20" target="1-rIj8gA_Ch3eZ7NqGmP-22">
          <mxGeometry relative="1" as="geometry" />
        </mxCell>
        <mxCell id="1-rIj8gA_Ch3eZ7NqGmP-45" value="" style="edgeStyle=orthogonalEdgeStyle;rounded=0;orthogonalLoop=1;jettySize=auto;html=1;" edge="1" parent="1" source="1-rIj8gA_Ch3eZ7NqGmP-20" target="1-rIj8gA_Ch3eZ7NqGmP-21">
          <mxGeometry relative="1" as="geometry" />
        </mxCell>
        <mxCell id="1-rIj8gA_Ch3eZ7NqGmP-20" value="choice == 5?" style="strokeWidth=2;html=1;shape=mxgraph.flowchart.decision;whiteSpace=wrap;" vertex="1" parent="1">
          <mxGeometry x="199" y="1195" width="112" height="100" as="geometry" />
        </mxCell>
        <mxCell id="1-rIj8gA_Ch3eZ7NqGmP-46" style="edgeStyle=orthogonalEdgeStyle;rounded=0;orthogonalLoop=1;jettySize=auto;html=1;entryX=0.5;entryY=1;entryDx=0;entryDy=0;" edge="1" parent="1" source="1-rIj8gA_Ch3eZ7NqGmP-21" target="1-rIj8gA_Ch3eZ7NqGmP-11">
          <mxGeometry relative="1" as="geometry" />
        </mxCell>
        <mxCell id="1-rIj8gA_Ch3eZ7NqGmP-21" value="cariUserMenu()" style="shape=process;whiteSpace=wrap;html=1;backgroundOutline=1;rounded=1;arcSize=7;strokeWidth=2;" vertex="1" parent="1">
          <mxGeometry x="355" y="1215" width="120" height="60" as="geometry" />
        </mxCell>
        <mxCell id="1-rIj8gA_Ch3eZ7NqGmP-39" value="" style="edgeStyle=orthogonalEdgeStyle;rounded=0;orthogonalLoop=1;jettySize=auto;html=1;" edge="1" parent="1" source="1-rIj8gA_Ch3eZ7NqGmP-22" target="1-rIj8gA_Ch3eZ7NqGmP-25">
          <mxGeometry relative="1" as="geometry" />
        </mxCell>
        <mxCell id="1-rIj8gA_Ch3eZ7NqGmP-40" value="" style="edgeStyle=orthogonalEdgeStyle;rounded=0;orthogonalLoop=1;jettySize=auto;html=1;" edge="1" parent="1" source="1-rIj8gA_Ch3eZ7NqGmP-22" target="1-rIj8gA_Ch3eZ7NqGmP-23">
          <mxGeometry relative="1" as="geometry" />
        </mxCell>
        <mxCell id="1-rIj8gA_Ch3eZ7NqGmP-22" value="choice == 6?" style="strokeWidth=2;html=1;shape=mxgraph.flowchart.decision;whiteSpace=wrap;" vertex="1" parent="1">
          <mxGeometry x="199" y="1325" width="112" height="100" as="geometry" />
        </mxCell>
        <mxCell id="1-rIj8gA_Ch3eZ7NqGmP-41" value="" style="edgeStyle=orthogonalEdgeStyle;rounded=0;orthogonalLoop=1;jettySize=auto;html=1;" edge="1" parent="1" source="1-rIj8gA_Ch3eZ7NqGmP-23" target="1-rIj8gA_Ch3eZ7NqGmP-24">
          <mxGeometry relative="1" as="geometry" />
        </mxCell>
        <mxCell id="1-rIj8gA_Ch3eZ7NqGmP-23" value="running = false" style="rounded=1;whiteSpace=wrap;html=1;absoluteArcSize=1;arcSize=14;strokeWidth=2;" vertex="1" parent="1">
          <mxGeometry x="355" y="1345" width="120" height="60" as="geometry" />
        </mxCell>
        <mxCell id="5v_lAmmthCmDXobhoToC-55" style="edgeStyle=orthogonalEdgeStyle;rounded=0;orthogonalLoop=1;jettySize=auto;html=1;entryX=0.5;entryY=1;entryDx=0;entryDy=0;" edge="1" parent="1" source="1-rIj8gA_Ch3eZ7NqGmP-24" target="1-rIj8gA_Ch3eZ7NqGmP-11">
          <mxGeometry relative="1" as="geometry" />
        </mxCell>
        <mxCell id="1-rIj8gA_Ch3eZ7NqGmP-24" value="Output &quot;Terima kasih&lt;div&gt;&lt;span style=&quot;background-color: transparent; color: light-dark(rgb(0, 0, 0), rgb(255, 255, 255));&quot;&gt;telah&amp;nbsp;&lt;/span&gt;&lt;span style=&quot;background-color: transparent; color: light-dark(rgb(0, 0, 0), rgb(255, 255, 255));&quot;&gt;menggunakan&lt;/span&gt;&lt;/div&gt;&lt;div&gt;&lt;span style=&quot;background-color: transparent; color: light-dark(rgb(0, 0, 0), rgb(255, 255, 255));&quot;&gt;progam&quot;&lt;/span&gt;&lt;/div&gt;" style="shape=parallelogram;html=1;strokeWidth=2;perimeter=parallelogramPerimeter;whiteSpace=wrap;rounded=1;arcSize=12;size=0.23;" vertex="1" parent="1">
          <mxGeometry x="510" y="1345" width="140" height="60" as="geometry" />
        </mxCell>
        <mxCell id="1-rIj8gA_Ch3eZ7NqGmP-25" value="Output &quot;Pilihan&amp;nbsp;&lt;div&gt;tidak valid!&lt;span style=&quot;background-color: transparent; color: light-dark(rgb(0, 0, 0), rgb(255, 255, 255));&quot;&gt;&quot;&lt;/span&gt;&lt;/div&gt;" style="shape=parallelogram;html=1;strokeWidth=2;perimeter=parallelogramPerimeter;whiteSpace=wrap;rounded=1;arcSize=12;size=0.23;" vertex="1" parent="1">
          <mxGeometry x="185" y="1465" width="140" height="60" as="geometry" />
        </mxCell>
        <mxCell id="1-rIj8gA_Ch3eZ7NqGmP-47" style="edgeStyle=orthogonalEdgeStyle;rounded=0;orthogonalLoop=1;jettySize=auto;html=1;entryX=0;entryY=0.5;entryDx=0;entryDy=0;entryPerimeter=0;" edge="1" parent="1" source="1-rIj8gA_Ch3eZ7NqGmP-25" target="1-rIj8gA_Ch3eZ7NqGmP-8">
          <mxGeometry relative="1" as="geometry">
            <Array as="points">
              <mxPoint x="85" y="1495" />
              <mxPoint x="85" y="725" />
            </Array>
          </mxGeometry>
        </mxCell>
        <mxCell id="1-rIj8gA_Ch3eZ7NqGmP-51" value="" style="edgeStyle=orthogonalEdgeStyle;rounded=0;orthogonalLoop=1;jettySize=auto;html=1;" edge="1" parent="1" source="1-rIj8gA_Ch3eZ7NqGmP-48" target="1-rIj8gA_Ch3eZ7NqGmP-50">
          <mxGeometry relative="1" as="geometry" />
        </mxCell>
        <mxCell id="1-rIj8gA_Ch3eZ7NqGmP-48" value="running ==&amp;nbsp;&lt;div&gt;true?&lt;/div&gt;" style="strokeWidth=2;html=1;shape=mxgraph.flowchart.decision;whiteSpace=wrap;" vertex="1" parent="1">
          <mxGeometry x="674" y="675" width="112" height="100" as="geometry" />
        </mxCell>
        <mxCell id="1-rIj8gA_Ch3eZ7NqGmP-49" style="edgeStyle=orthogonalEdgeStyle;rounded=0;orthogonalLoop=1;jettySize=auto;html=1;entryX=0;entryY=0.5;entryDx=0;entryDy=0;entryPerimeter=0;" edge="1" parent="1" source="1-rIj8gA_Ch3eZ7NqGmP-11" target="1-rIj8gA_Ch3eZ7NqGmP-48">
          <mxGeometry relative="1" as="geometry" />
        </mxCell>
        <mxCell id="S57QRM1PSJ2Nqtw7xYWy-11" style="edgeStyle=orthogonalEdgeStyle;rounded=0;orthogonalLoop=1;jettySize=auto;html=1;entryX=0;entryY=0.5;entryDx=0;entryDy=0;entryPerimeter=0;exitX=1;exitY=0.5;exitDx=0;exitDy=0;" edge="1" parent="1" source="1-rIj8gA_Ch3eZ7NqGmP-50" target="1-rIj8gA_Ch3eZ7NqGmP-55">
          <mxGeometry relative="1" as="geometry">
            <mxPoint x="970" y="869.9999999999998" as="targetPoint" />
            <Array as="points">
              <mxPoint x="830" y="605" />
              <mxPoint x="830" y="1550" />
              <mxPoint x="30" y="1550" />
              <mxPoint x="30" y="505" />
            </Array>
          </mxGeometry>
        </mxCell>
        <mxCell id="1-rIj8gA_Ch3eZ7NqGmP-50" value="lanjutkan&lt;div&gt;Program()&lt;/div&gt;" style="shape=process;whiteSpace=wrap;html=1;backgroundOutline=1;rounded=1;arcSize=7;strokeWidth=2;" vertex="1" parent="1">
          <mxGeometry x="670" y="575" width="120" height="60" as="geometry" />
        </mxCell>
        <mxCell id="1-rIj8gA_Ch3eZ7NqGmP-54" style="edgeStyle=orthogonalEdgeStyle;rounded=0;orthogonalLoop=1;jettySize=auto;html=1;entryX=0.5;entryY=0;entryDx=0;entryDy=0;" edge="1" parent="1" source="1-rIj8gA_Ch3eZ7NqGmP-52" target="1-rIj8gA_Ch3eZ7NqGmP-50">
          <mxGeometry relative="1" as="geometry">
            <Array as="points">
              <mxPoint x="730" y="505" />
            </Array>
          </mxGeometry>
        </mxCell>
        <mxCell id="1-rIj8gA_Ch3eZ7NqGmP-52" value="Output &quot;Input&lt;div&gt;harus berupa&amp;nbsp;&lt;/div&gt;&lt;div&gt;angka!&quot;&lt;/div&gt;" style="shape=parallelogram;html=1;strokeWidth=2;perimeter=parallelogramPerimeter;whiteSpace=wrap;rounded=1;arcSize=12;size=0.23;" vertex="1" parent="1">
          <mxGeometry x="355" y="475" width="140" height="60" as="geometry" />
        </mxCell>
        <mxCell id="1-rIj8gA_Ch3eZ7NqGmP-55" value="End" style="strokeWidth=2;html=1;shape=mxgraph.flowchart.terminator;whiteSpace=wrap;strokeColor=default;" vertex="1" parent="1">
          <mxGeometry x="48" y="480" width="105" height="50" as="geometry" />
        </mxCell>
        <mxCell id="v9KvLC4F9H2_IWOcF26b-1" value="" style="edgeStyle=orthogonalEdgeStyle;rounded=0;orthogonalLoop=1;jettySize=auto;html=1;" edge="1" parent="1" source="1-rIj8gA_Ch3eZ7NqGmP-62" target="IG5THaJwuLU9SZssIk_B-2">
          <mxGeometry relative="1" as="geometry" />
        </mxCell>
        <mxCell id="1-rIj8gA_Ch3eZ7NqGmP-62" value="Output &quot;Masukkan&lt;div&gt;&lt;span style=&quot;background-color: transparent; color: light-dark(rgb(0, 0, 0), rgb(255, 255, 255));&quot;&gt;ID User: &quot;&lt;/span&gt;&lt;/div&gt;" style="shape=parallelogram;html=1;strokeWidth=2;perimeter=parallelogramPerimeter;whiteSpace=wrap;rounded=1;arcSize=12;size=0.23;" vertex="1" parent="1">
          <mxGeometry x="1150" y="160" width="140" height="60" as="geometry" />
        </mxCell>
        <mxCell id="v9KvLC4F9H2_IWOcF26b-3" value="" style="edgeStyle=orthogonalEdgeStyle;rounded=0;orthogonalLoop=1;jettySize=auto;html=1;" edge="1" parent="1" source="IG5THaJwuLU9SZssIk_B-2" target="v9KvLC4F9H2_IWOcF26b-2">
          <mxGeometry relative="1" as="geometry" />
        </mxCell>
        <mxCell id="IG5THaJwuLU9SZssIk_B-2" value="Input id user" style="shape=parallelogram;html=1;strokeWidth=2;perimeter=parallelogramPerimeter;whiteSpace=wrap;rounded=1;arcSize=12;size=0.23;" vertex="1" parent="1">
          <mxGeometry x="1150" y="252.5" width="140" height="60" as="geometry" />
        </mxCell>
        <mxCell id="5v_lAmmthCmDXobhoToC-53" value="" style="edgeStyle=orthogonalEdgeStyle;rounded=0;orthogonalLoop=1;jettySize=auto;html=1;" edge="1" parent="1" source="v9KvLC4F9H2_IWOcF26b-2" target="5v_lAmmthCmDXobhoToC-52">
          <mxGeometry relative="1" as="geometry" />
        </mxCell>
        <mxCell id="S57QRM1PSJ2Nqtw7xYWy-25" value="" style="edgeStyle=orthogonalEdgeStyle;rounded=0;orthogonalLoop=1;jettySize=auto;html=1;" edge="1" parent="1" source="v9KvLC4F9H2_IWOcF26b-2" target="v9KvLC4F9H2_IWOcF26b-4">
          <mxGeometry relative="1" as="geometry" />
        </mxCell>
        <mxCell id="v9KvLC4F9H2_IWOcF26b-2" value="cariUser() != null" style="strokeWidth=2;html=1;shape=mxgraph.flowchart.decision;whiteSpace=wrap;" vertex="1" parent="1">
          <mxGeometry x="1164" y="340" width="112" height="100" as="geometry" />
        </mxCell>
        <mxCell id="v9KvLC4F9H2_IWOcF26b-12" value="" style="edgeStyle=orthogonalEdgeStyle;rounded=0;orthogonalLoop=1;jettySize=auto;html=1;" edge="1" parent="1" source="v9KvLC4F9H2_IWOcF26b-4" target="v9KvLC4F9H2_IWOcF26b-7">
          <mxGeometry relative="1" as="geometry" />
        </mxCell>
        <mxCell id="v9KvLC4F9H2_IWOcF26b-4" value="Output &quot;ID sudah&lt;div&gt;digunakan!&quot;&lt;/div&gt;" style="shape=parallelogram;html=1;strokeWidth=2;perimeter=parallelogramPerimeter;whiteSpace=wrap;rounded=1;arcSize=12;size=0.23;" vertex="1" parent="1">
          <mxGeometry x="1310" y="360" width="140" height="60" as="geometry" />
        </mxCell>
        <mxCell id="4OWbSGT-7H7s9UhKpDzS-3" value="" style="edgeStyle=orthogonalEdgeStyle;rounded=0;orthogonalLoop=1;jettySize=auto;html=1;" edge="1" parent="1" source="v9KvLC4F9H2_IWOcF26b-6" target="1-rIj8gA_Ch3eZ7NqGmP-62">
          <mxGeometry relative="1" as="geometry" />
        </mxCell>
        <mxCell id="v9KvLC4F9H2_IWOcF26b-6" value="tambahUser()" style="strokeWidth=2;html=1;shape=mxgraph.flowchart.terminator;whiteSpace=wrap;strokeColor=default;" vertex="1" parent="1">
          <mxGeometry x="1167.5" y="77.5" width="105" height="50" as="geometry" />
        </mxCell>
        <mxCell id="v9KvLC4F9H2_IWOcF26b-7" value="return" style="strokeWidth=2;html=1;shape=mxgraph.flowchart.terminator;whiteSpace=wrap;strokeColor=default;" vertex="1" parent="1">
          <mxGeometry x="1327.5" y="600" width="105" height="50" as="geometry" />
        </mxCell>
        <mxCell id="v9KvLC4F9H2_IWOcF26b-11" value="" style="edgeStyle=orthogonalEdgeStyle;rounded=0;orthogonalLoop=1;jettySize=auto;html=1;" edge="1" parent="1" source="v9KvLC4F9H2_IWOcF26b-8" target="v9KvLC4F9H2_IWOcF26b-9">
          <mxGeometry relative="1" as="geometry" />
        </mxCell>
        <mxCell id="v9KvLC4F9H2_IWOcF26b-8" value="Output &quot;Masukkan&lt;div&gt;nama user: &quot;&lt;/div&gt;" style="shape=parallelogram;html=1;strokeWidth=2;perimeter=parallelogramPerimeter;whiteSpace=wrap;rounded=1;arcSize=12;size=0.23;" vertex="1" parent="1">
          <mxGeometry x="1150" y="570" width="140" height="60" as="geometry" />
        </mxCell>
        <mxCell id="SNUDt2xT82GKV9zP0POc-2" value="" style="edgeStyle=orthogonalEdgeStyle;rounded=0;orthogonalLoop=1;jettySize=auto;html=1;" edge="1" parent="1" source="v9KvLC4F9H2_IWOcF26b-9" target="SNUDt2xT82GKV9zP0POc-1">
          <mxGeometry relative="1" as="geometry" />
        </mxCell>
        <mxCell id="v9KvLC4F9H2_IWOcF26b-9" value="Input nama user" style="shape=parallelogram;html=1;strokeWidth=2;perimeter=parallelogramPerimeter;whiteSpace=wrap;rounded=1;arcSize=12;size=0.23;" vertex="1" parent="1">
          <mxGeometry x="1150" y="660" width="140" height="60" as="geometry" />
        </mxCell>
        <mxCell id="4OWbSGT-7H7s9UhKpDzS-1" value="" style="edgeStyle=orthogonalEdgeStyle;rounded=0;orthogonalLoop=1;jettySize=auto;html=1;" edge="1" parent="1" source="SNUDt2xT82GKV9zP0POc-1" target="SNUDt2xT82GKV9zP0POc-3">
          <mxGeometry relative="1" as="geometry" />
        </mxCell>
        <mxCell id="SNUDt2xT82GKV9zP0POc-1" value="User ditambah dalam&amp;nbsp;&lt;div&gt;array list&lt;/div&gt;" style="rounded=1;whiteSpace=wrap;html=1;absoluteArcSize=1;arcSize=14;strokeWidth=2;" vertex="1" parent="1">
          <mxGeometry x="1160" y="750" width="120" height="60" as="geometry" />
        </mxCell>
        <mxCell id="SNUDt2xT82GKV9zP0POc-3" value="Output &quot;User&lt;div&gt;berhasil ditambahkan&lt;span style=&quot;background-color: transparent; color: light-dark(rgb(0, 0, 0), rgb(255, 255, 255));&quot;&gt;&quot;&lt;/span&gt;&lt;/div&gt;" style="shape=parallelogram;html=1;strokeWidth=2;perimeter=parallelogramPerimeter;whiteSpace=wrap;rounded=1;arcSize=12;size=0.23;" vertex="1" parent="1">
          <mxGeometry x="1150" y="840" width="140" height="60" as="geometry" />
        </mxCell>
        <mxCell id="4OWbSGT-7H7s9UhKpDzS-2" style="edgeStyle=orthogonalEdgeStyle;rounded=0;orthogonalLoop=1;jettySize=auto;html=1;entryX=0.5;entryY=1;entryDx=0;entryDy=0;entryPerimeter=0;" edge="1" parent="1" source="SNUDt2xT82GKV9zP0POc-3" target="v9KvLC4F9H2_IWOcF26b-7">
          <mxGeometry relative="1" as="geometry" />
        </mxCell>
        <mxCell id="4OWbSGT-7H7s9UhKpDzS-7" value="" style="edgeStyle=orthogonalEdgeStyle;rounded=0;orthogonalLoop=1;jettySize=auto;html=1;" edge="1" parent="1" source="4OWbSGT-7H7s9UhKpDzS-4" target="4OWbSGT-7H7s9UhKpDzS-6">
          <mxGeometry relative="1" as="geometry" />
        </mxCell>
        <mxCell id="4OWbSGT-7H7s9UhKpDzS-4" value="tampilkanUser()" style="strokeWidth=2;html=1;shape=mxgraph.flowchart.terminator;whiteSpace=wrap;strokeColor=default;" vertex="1" parent="1">
          <mxGeometry x="1167.5" y="1015" width="105" height="50" as="geometry" />
        </mxCell>
        <mxCell id="4OWbSGT-7H7s9UhKpDzS-9" value="" style="edgeStyle=orthogonalEdgeStyle;rounded=0;orthogonalLoop=1;jettySize=auto;html=1;" edge="1" parent="1" source="4OWbSGT-7H7s9UhKpDzS-6" target="4OWbSGT-7H7s9UhKpDzS-8">
          <mxGeometry relative="1" as="geometry" />
        </mxCell>
        <mxCell id="4OWbSGT-7H7s9UhKpDzS-11" value="" style="edgeStyle=orthogonalEdgeStyle;rounded=0;orthogonalLoop=1;jettySize=auto;html=1;" edge="1" parent="1" source="4OWbSGT-7H7s9UhKpDzS-6" target="4OWbSGT-7H7s9UhKpDzS-10">
          <mxGeometry relative="1" as="geometry" />
        </mxCell>
        <mxCell id="4OWbSGT-7H7s9UhKpDzS-6" value="daftarUser ==&amp;nbsp;&lt;div&gt;null?&lt;/div&gt;" style="strokeWidth=2;html=1;shape=mxgraph.flowchart.decision;whiteSpace=wrap;" vertex="1" parent="1">
          <mxGeometry x="1164" y="1100" width="112" height="100" as="geometry" />
        </mxCell>
        <mxCell id="KlgBwkNf6lIB1LI65m59-7" style="edgeStyle=orthogonalEdgeStyle;rounded=0;orthogonalLoop=1;jettySize=auto;html=1;" edge="1" parent="1" source="4OWbSGT-7H7s9UhKpDzS-8" target="KlgBwkNf6lIB1LI65m59-6">
          <mxGeometry relative="1" as="geometry" />
        </mxCell>
        <mxCell id="4OWbSGT-7H7s9UhKpDzS-8" value="Output &quot;Belum&lt;div&gt;&lt;span style=&quot;background-color: transparent; color: light-dark(rgb(0, 0, 0), rgb(255, 255, 255));&quot;&gt;ada user terdaftar&quot;&lt;/span&gt;&lt;/div&gt;" style="shape=parallelogram;html=1;strokeWidth=2;perimeter=parallelogramPerimeter;whiteSpace=wrap;rounded=1;arcSize=12;size=0.23;" vertex="1" parent="1">
          <mxGeometry x="1310" y="1120" width="140" height="60" as="geometry" />
        </mxCell>
        <mxCell id="KlgBwkNf6lIB1LI65m59-2" value="" style="edgeStyle=orthogonalEdgeStyle;rounded=0;orthogonalLoop=1;jettySize=auto;html=1;" edge="1" parent="1" source="4OWbSGT-7H7s9UhKpDzS-10" target="KlgBwkNf6lIB1LI65m59-1">
          <mxGeometry relative="1" as="geometry" />
        </mxCell>
        <mxCell id="4OWbSGT-7H7s9UhKpDzS-10" value="Output &quot;Daftar&lt;div&gt;&lt;span style=&quot;background-color: transparent; color: light-dark(rgb(0, 0, 0), rgb(255, 255, 255));&quot;&gt;user: &quot;&lt;/span&gt;&lt;/div&gt;" style="shape=parallelogram;html=1;strokeWidth=2;perimeter=parallelogramPerimeter;whiteSpace=wrap;rounded=1;arcSize=12;size=0.23;" vertex="1" parent="1">
          <mxGeometry x="1150" y="1230" width="140" height="60" as="geometry" />
        </mxCell>
        <mxCell id="KlgBwkNf6lIB1LI65m59-4" value="" style="edgeStyle=orthogonalEdgeStyle;rounded=0;orthogonalLoop=1;jettySize=auto;html=1;" edge="1" parent="1" source="KlgBwkNf6lIB1LI65m59-1" target="KlgBwkNf6lIB1LI65m59-3">
          <mxGeometry relative="1" as="geometry" />
        </mxCell>
        <mxCell id="KlgBwkNf6lIB1LI65m59-9" value="" style="edgeStyle=orthogonalEdgeStyle;rounded=0;orthogonalLoop=1;jettySize=auto;html=1;" edge="1" parent="1" source="KlgBwkNf6lIB1LI65m59-1" target="KlgBwkNf6lIB1LI65m59-6">
          <mxGeometry relative="1" as="geometry" />
        </mxCell>
        <mxCell id="KlgBwkNf6lIB1LI65m59-1" value="User ada di&lt;div&gt;daftar user?&lt;/div&gt;" style="strokeWidth=2;html=1;shape=mxgraph.flowchart.decision;whiteSpace=wrap;" vertex="1" parent="1">
          <mxGeometry x="1164" y="1320" width="112" height="100" as="geometry" />
        </mxCell>
        <mxCell id="KlgBwkNf6lIB1LI65m59-3" value="Output user" style="shape=parallelogram;html=1;strokeWidth=2;perimeter=parallelogramPerimeter;whiteSpace=wrap;rounded=1;arcSize=12;size=0.23;" vertex="1" parent="1">
          <mxGeometry x="1150" y="1450" width="140" height="60" as="geometry" />
        </mxCell>
        <mxCell id="KlgBwkNf6lIB1LI65m59-5" style="edgeStyle=orthogonalEdgeStyle;rounded=0;orthogonalLoop=1;jettySize=auto;html=1;entryX=0;entryY=0.5;entryDx=0;entryDy=0;entryPerimeter=0;" edge="1" parent="1" source="KlgBwkNf6lIB1LI65m59-3" target="KlgBwkNf6lIB1LI65m59-1">
          <mxGeometry relative="1" as="geometry">
            <Array as="points">
              <mxPoint x="1130" y="1470" />
              <mxPoint x="1130" y="1370" />
            </Array>
          </mxGeometry>
        </mxCell>
        <mxCell id="KlgBwkNf6lIB1LI65m59-6" value="return" style="strokeWidth=2;html=1;shape=mxgraph.flowchart.terminator;whiteSpace=wrap;strokeColor=default;" vertex="1" parent="1">
          <mxGeometry x="1327.5" y="1345" width="105" height="50" as="geometry" />
        </mxCell>
        <mxCell id="KlgBwkNf6lIB1LI65m59-12" value="" style="edgeStyle=orthogonalEdgeStyle;rounded=0;orthogonalLoop=1;jettySize=auto;html=1;" edge="1" parent="1" source="KlgBwkNf6lIB1LI65m59-10" target="KlgBwkNf6lIB1LI65m59-11">
          <mxGeometry relative="1" as="geometry" />
        </mxCell>
        <mxCell id="KlgBwkNf6lIB1LI65m59-10" value="editUser()" style="strokeWidth=2;html=1;shape=mxgraph.flowchart.terminator;whiteSpace=wrap;strokeColor=default;" vertex="1" parent="1">
          <mxGeometry x="1717.5" y="70" width="105" height="50" as="geometry" />
        </mxCell>
        <mxCell id="KlgBwkNf6lIB1LI65m59-15" value="" style="edgeStyle=orthogonalEdgeStyle;rounded=0;orthogonalLoop=1;jettySize=auto;html=1;" edge="1" parent="1" source="KlgBwkNf6lIB1LI65m59-11" target="KlgBwkNf6lIB1LI65m59-13">
          <mxGeometry relative="1" as="geometry" />
        </mxCell>
        <mxCell id="KlgBwkNf6lIB1LI65m59-11" value="Output &quot;Masukkan&lt;div&gt;&lt;span style=&quot;background-color: transparent; color: light-dark(rgb(0, 0, 0), rgb(255, 255, 255));&quot;&gt;ID User: &quot;&lt;/span&gt;&lt;/div&gt;" style="shape=parallelogram;html=1;strokeWidth=2;perimeter=parallelogramPerimeter;whiteSpace=wrap;rounded=1;arcSize=12;size=0.23;" vertex="1" parent="1">
          <mxGeometry x="1700" y="150" width="140" height="60" as="geometry" />
        </mxCell>
        <mxCell id="KlgBwkNf6lIB1LI65m59-16" value="" style="edgeStyle=orthogonalEdgeStyle;rounded=0;orthogonalLoop=1;jettySize=auto;html=1;" edge="1" parent="1" source="KlgBwkNf6lIB1LI65m59-13" target="KlgBwkNf6lIB1LI65m59-14">
          <mxGeometry relative="1" as="geometry" />
        </mxCell>
        <mxCell id="KlgBwkNf6lIB1LI65m59-13" value="Input id user" style="shape=parallelogram;html=1;strokeWidth=2;perimeter=parallelogramPerimeter;whiteSpace=wrap;rounded=1;arcSize=12;size=0.23;" vertex="1" parent="1">
          <mxGeometry x="1700" y="240" width="140" height="60" as="geometry" />
        </mxCell>
        <mxCell id="KlgBwkNf6lIB1LI65m59-28" value="" style="edgeStyle=orthogonalEdgeStyle;rounded=0;orthogonalLoop=1;jettySize=auto;html=1;" edge="1" parent="1" source="KlgBwkNf6lIB1LI65m59-14" target="KlgBwkNf6lIB1LI65m59-17">
          <mxGeometry relative="1" as="geometry" />
        </mxCell>
        <mxCell id="KlgBwkNf6lIB1LI65m59-14" value="cariUser(id, daftarUser, true)" style="shape=process;whiteSpace=wrap;html=1;backgroundOutline=1;rounded=1;arcSize=7;strokeWidth=2;" vertex="1" parent="1">
          <mxGeometry x="1710" y="330" width="120" height="60" as="geometry" />
        </mxCell>
        <mxCell id="KlgBwkNf6lIB1LI65m59-26" value="" style="edgeStyle=orthogonalEdgeStyle;rounded=0;orthogonalLoop=1;jettySize=auto;html=1;" edge="1" parent="1" source="KlgBwkNf6lIB1LI65m59-17" target="KlgBwkNf6lIB1LI65m59-18">
          <mxGeometry relative="1" as="geometry" />
        </mxCell>
        <mxCell id="KlgBwkNf6lIB1LI65m59-27" value="" style="edgeStyle=orthogonalEdgeStyle;rounded=0;orthogonalLoop=1;jettySize=auto;html=1;" edge="1" parent="1" source="KlgBwkNf6lIB1LI65m59-17" target="KlgBwkNf6lIB1LI65m59-23">
          <mxGeometry relative="1" as="geometry" />
        </mxCell>
        <mxCell id="KlgBwkNf6lIB1LI65m59-17" value="user != null" style="strokeWidth=2;html=1;shape=mxgraph.flowchart.decision;whiteSpace=wrap;" vertex="1" parent="1">
          <mxGeometry x="1714" y="420" width="112" height="100" as="geometry" />
        </mxCell>
        <mxCell id="KlgBwkNf6lIB1LI65m59-20" value="" style="edgeStyle=orthogonalEdgeStyle;rounded=0;orthogonalLoop=1;jettySize=auto;html=1;" edge="1" parent="1" source="KlgBwkNf6lIB1LI65m59-18" target="KlgBwkNf6lIB1LI65m59-19">
          <mxGeometry relative="1" as="geometry" />
        </mxCell>
        <mxCell id="KlgBwkNf6lIB1LI65m59-18" value="Output &quot;Masukkan&lt;div&gt;nama baru: &quot;&lt;span style=&quot;color: rgba(0, 0, 0, 0); font-family: monospace; font-size: 0px; text-align: start; text-wrap-mode: nowrap; background-color: transparent;&quot;&gt;%3CmxGraphModel%3E%3Croot%3E%3CmxCell%20id%3D%220%22%2F%3E%3CmxCell%20id%3D%221%22%20parent%3D%220%22%2F%3E%3CmxCell%20id%3D%222%22%20value%3D%22Input%20id%20user%22%20style%3D%22shape%3Dparallelogram%3Bhtml%3D1%3BstrokeWidth%3D2%3Bperimeter%3DparallelogramPerimeter%3BwhiteSpace%3Dwrap%3Brounded%3D1%3BarcSize%3D12%3Bsize%3D0.23%3B%22%20vertex%3D%221%22%20parent%3D%221%22%3E%3CmxGeometry%20x%3D%221150%22%20y%3D%221620%22%20width%3D%22140%22%20height%3D%2260%22%20as%3D%22geometry%22%2F%3E%3C%2FmxCell%3E%3C%2Froot%3E%3C%2FmxGraphModel%3E&lt;/span&gt;&lt;span style=&quot;background-color: transparent; color: light-dark(rgb(0, 0, 0), rgb(255, 255, 255));&quot;&gt;&amp;nbsp;&lt;/span&gt;&lt;/div&gt;" style="shape=parallelogram;html=1;strokeWidth=2;perimeter=parallelogramPerimeter;whiteSpace=wrap;rounded=1;arcSize=12;size=0.23;" vertex="1" parent="1">
          <mxGeometry x="1860" y="440" width="140" height="60" as="geometry" />
        </mxCell>
        <mxCell id="KlgBwkNf6lIB1LI65m59-22" value="" style="edgeStyle=orthogonalEdgeStyle;rounded=0;orthogonalLoop=1;jettySize=auto;html=1;" edge="1" parent="1" source="KlgBwkNf6lIB1LI65m59-19" target="KlgBwkNf6lIB1LI65m59-21">
          <mxGeometry relative="1" as="geometry" />
        </mxCell>
        <mxCell id="KlgBwkNf6lIB1LI65m59-19" value="input nama user" style="shape=parallelogram;html=1;strokeWidth=2;perimeter=parallelogramPerimeter;whiteSpace=wrap;rounded=1;arcSize=12;size=0.23;" vertex="1" parent="1">
          <mxGeometry x="1860" y="530" width="140" height="60" as="geometry" />
        </mxCell>
        <mxCell id="KlgBwkNf6lIB1LI65m59-21" value="Output &quot;Data&amp;nbsp;&lt;div&gt;berhasil diperbarui&quot;&lt;span style=&quot;background-color: transparent; text-wrap-mode: nowrap; color: rgba(0, 0, 0, 0); font-family: monospace; font-size: 0px; text-align: start;&quot;&gt;%3E&lt;/span&gt;&lt;span style=&quot;background-color: transparent; color: light-dark(rgb(0, 0, 0), rgb(255, 255, 255));&quot;&gt;&amp;nbsp;&lt;/span&gt;&lt;/div&gt;" style="shape=parallelogram;html=1;strokeWidth=2;perimeter=parallelogramPerimeter;whiteSpace=wrap;rounded=1;arcSize=12;size=0.23;" vertex="1" parent="1">
          <mxGeometry x="1860" y="620" width="140" height="60" as="geometry" />
        </mxCell>
        <mxCell id="KlgBwkNf6lIB1LI65m59-23" value="return" style="strokeWidth=2;html=1;shape=mxgraph.flowchart.terminator;whiteSpace=wrap;strokeColor=default;" vertex="1" parent="1">
          <mxGeometry x="1717.5" y="625" width="105" height="50" as="geometry" />
        </mxCell>
        <mxCell id="KlgBwkNf6lIB1LI65m59-24" style="edgeStyle=orthogonalEdgeStyle;rounded=0;orthogonalLoop=1;jettySize=auto;html=1;entryX=1;entryY=0.5;entryDx=0;entryDy=0;entryPerimeter=0;" edge="1" parent="1" source="KlgBwkNf6lIB1LI65m59-21" target="KlgBwkNf6lIB1LI65m59-23">
          <mxGeometry relative="1" as="geometry" />
        </mxCell>
        <mxCell id="KlgBwkNf6lIB1LI65m59-31" value="" style="edgeStyle=orthogonalEdgeStyle;rounded=0;orthogonalLoop=1;jettySize=auto;html=1;" edge="1" parent="1" source="KlgBwkNf6lIB1LI65m59-29" target="KlgBwkNf6lIB1LI65m59-30">
          <mxGeometry relative="1" as="geometry" />
        </mxCell>
        <mxCell id="KlgBwkNf6lIB1LI65m59-29" value="hapusUser()" style="strokeWidth=2;html=1;shape=mxgraph.flowchart.terminator;whiteSpace=wrap;strokeColor=default;" vertex="1" parent="1">
          <mxGeometry x="2220" y="70" width="105" height="50" as="geometry" />
        </mxCell>
        <mxCell id="KlgBwkNf6lIB1LI65m59-33" value="" style="edgeStyle=orthogonalEdgeStyle;rounded=0;orthogonalLoop=1;jettySize=auto;html=1;" edge="1" parent="1" source="KlgBwkNf6lIB1LI65m59-30" target="KlgBwkNf6lIB1LI65m59-32">
          <mxGeometry relative="1" as="geometry" />
        </mxCell>
        <mxCell id="KlgBwkNf6lIB1LI65m59-30" value="Output &quot;Masukkan&lt;div&gt;&lt;span style=&quot;background-color: transparent; color: light-dark(rgb(0, 0, 0), rgb(255, 255, 255));&quot;&gt;ID User: &quot;&lt;/span&gt;&lt;/div&gt;" style="shape=parallelogram;html=1;strokeWidth=2;perimeter=parallelogramPerimeter;whiteSpace=wrap;rounded=1;arcSize=12;size=0.23;" vertex="1" parent="1">
          <mxGeometry x="2202.5" y="150" width="140" height="60" as="geometry" />
        </mxCell>
        <mxCell id="KlgBwkNf6lIB1LI65m59-35" value="" style="edgeStyle=orthogonalEdgeStyle;rounded=0;orthogonalLoop=1;jettySize=auto;html=1;" edge="1" parent="1" source="KlgBwkNf6lIB1LI65m59-32" target="KlgBwkNf6lIB1LI65m59-34">
          <mxGeometry relative="1" as="geometry" />
        </mxCell>
        <mxCell id="KlgBwkNf6lIB1LI65m59-32" value="Input id user" style="shape=parallelogram;html=1;strokeWidth=2;perimeter=parallelogramPerimeter;whiteSpace=wrap;rounded=1;arcSize=12;size=0.23;" vertex="1" parent="1">
          <mxGeometry x="2202.5" y="240" width="140" height="60" as="geometry" />
        </mxCell>
        <mxCell id="KlgBwkNf6lIB1LI65m59-37" value="" style="edgeStyle=orthogonalEdgeStyle;rounded=0;orthogonalLoop=1;jettySize=auto;html=1;" edge="1" parent="1" source="KlgBwkNf6lIB1LI65m59-34" target="KlgBwkNf6lIB1LI65m59-36">
          <mxGeometry relative="1" as="geometry" />
        </mxCell>
        <mxCell id="KlgBwkNf6lIB1LI65m59-34" value="cariUser(id, daftarUser, true)" style="shape=process;whiteSpace=wrap;html=1;backgroundOutline=1;rounded=1;arcSize=7;strokeWidth=2;" vertex="1" parent="1">
          <mxGeometry x="2212.5" y="330" width="120" height="60" as="geometry" />
        </mxCell>
        <mxCell id="5v_lAmmthCmDXobhoToC-2" value="" style="edgeStyle=orthogonalEdgeStyle;rounded=0;orthogonalLoop=1;jettySize=auto;html=1;" edge="1" parent="1" source="KlgBwkNf6lIB1LI65m59-36" target="5v_lAmmthCmDXobhoToC-1">
          <mxGeometry relative="1" as="geometry" />
        </mxCell>
        <mxCell id="5v_lAmmthCmDXobhoToC-6" value="" style="edgeStyle=orthogonalEdgeStyle;rounded=0;orthogonalLoop=1;jettySize=auto;html=1;" edge="1" parent="1" source="KlgBwkNf6lIB1LI65m59-36" target="5v_lAmmthCmDXobhoToC-5">
          <mxGeometry relative="1" as="geometry" />
        </mxCell>
        <mxCell id="KlgBwkNf6lIB1LI65m59-36" value="user != null" style="strokeWidth=2;html=1;shape=mxgraph.flowchart.decision;whiteSpace=wrap;" vertex="1" parent="1">
          <mxGeometry x="2216.5" y="420" width="112" height="100" as="geometry" />
        </mxCell>
        <mxCell id="5v_lAmmthCmDXobhoToC-4" value="" style="edgeStyle=orthogonalEdgeStyle;rounded=0;orthogonalLoop=1;jettySize=auto;html=1;" edge="1" parent="1" source="5v_lAmmthCmDXobhoToC-1" target="5v_lAmmthCmDXobhoToC-3">
          <mxGeometry relative="1" as="geometry" />
        </mxCell>
        <mxCell id="5v_lAmmthCmDXobhoToC-1" value="Hapus user dalam&lt;div&gt;daftar user&lt;/div&gt;" style="rounded=1;whiteSpace=wrap;html=1;absoluteArcSize=1;arcSize=14;strokeWidth=2;" vertex="1" parent="1">
          <mxGeometry x="2372.5" y="440" width="120" height="60" as="geometry" />
        </mxCell>
        <mxCell id="5v_lAmmthCmDXobhoToC-7" value="" style="edgeStyle=orthogonalEdgeStyle;rounded=0;orthogonalLoop=1;jettySize=auto;html=1;" edge="1" parent="1" source="5v_lAmmthCmDXobhoToC-3" target="5v_lAmmthCmDXobhoToC-5">
          <mxGeometry relative="1" as="geometry" />
        </mxCell>
        <mxCell id="5v_lAmmthCmDXobhoToC-3" value="Output &quot;User&amp;nbsp;&lt;div&gt;berhasil dihapus&lt;span style=&quot;background-color: transparent; color: light-dark(rgb(0, 0, 0), rgb(255, 255, 255));&quot;&gt;&quot;&lt;/span&gt;&lt;/div&gt;" style="shape=parallelogram;html=1;strokeWidth=2;perimeter=parallelogramPerimeter;whiteSpace=wrap;rounded=1;arcSize=12;size=0.23;" vertex="1" parent="1">
          <mxGeometry x="2362.5" y="550" width="140" height="60" as="geometry" />
        </mxCell>
        <mxCell id="5v_lAmmthCmDXobhoToC-5" value="return" style="strokeWidth=2;html=1;shape=mxgraph.flowchart.terminator;whiteSpace=wrap;strokeColor=default;" vertex="1" parent="1">
          <mxGeometry x="2220" y="555" width="105" height="50" as="geometry" />
        </mxCell>
        <mxCell id="5v_lAmmthCmDXobhoToC-10" value="" style="edgeStyle=orthogonalEdgeStyle;rounded=0;orthogonalLoop=1;jettySize=auto;html=1;" edge="1" parent="1" source="5v_lAmmthCmDXobhoToC-8" target="5v_lAmmthCmDXobhoToC-9">
          <mxGeometry relative="1" as="geometry" />
        </mxCell>
        <mxCell id="5v_lAmmthCmDXobhoToC-8" value="cariUserMenu()" style="strokeWidth=2;html=1;shape=mxgraph.flowchart.terminator;whiteSpace=wrap;strokeColor=default;" vertex="1" parent="1">
          <mxGeometry x="1717.5" y="850" width="105" height="50" as="geometry" />
        </mxCell>
        <mxCell id="5v_lAmmthCmDXobhoToC-12" value="" style="edgeStyle=orthogonalEdgeStyle;rounded=0;orthogonalLoop=1;jettySize=auto;html=1;" edge="1" parent="1" source="5v_lAmmthCmDXobhoToC-9" target="5v_lAmmthCmDXobhoToC-11">
          <mxGeometry relative="1" as="geometry" />
        </mxCell>
        <mxCell id="5v_lAmmthCmDXobhoToC-9" value="Output &quot;Masukkan&lt;div&gt;&lt;span style=&quot;background-color: transparent; color: light-dark(rgb(0, 0, 0), rgb(255, 255, 255));&quot;&gt;ID User: &quot;&lt;/span&gt;&lt;/div&gt;" style="shape=parallelogram;html=1;strokeWidth=2;perimeter=parallelogramPerimeter;whiteSpace=wrap;rounded=1;arcSize=12;size=0.23;" vertex="1" parent="1">
          <mxGeometry x="1700" y="935" width="140" height="60" as="geometry" />
        </mxCell>
        <mxCell id="5v_lAmmthCmDXobhoToC-14" value="" style="edgeStyle=orthogonalEdgeStyle;rounded=0;orthogonalLoop=1;jettySize=auto;html=1;" edge="1" parent="1" source="5v_lAmmthCmDXobhoToC-11" target="5v_lAmmthCmDXobhoToC-13">
          <mxGeometry relative="1" as="geometry" />
        </mxCell>
        <mxCell id="5v_lAmmthCmDXobhoToC-11" value="Input id user" style="shape=parallelogram;html=1;strokeWidth=2;perimeter=parallelogramPerimeter;whiteSpace=wrap;rounded=1;arcSize=12;size=0.23;" vertex="1" parent="1">
          <mxGeometry x="1700" y="1025" width="140" height="60" as="geometry" />
        </mxCell>
        <mxCell id="5v_lAmmthCmDXobhoToC-16" value="" style="edgeStyle=orthogonalEdgeStyle;rounded=0;orthogonalLoop=1;jettySize=auto;html=1;" edge="1" parent="1" source="5v_lAmmthCmDXobhoToC-13" target="5v_lAmmthCmDXobhoToC-15">
          <mxGeometry relative="1" as="geometry" />
        </mxCell>
        <mxCell id="5v_lAmmthCmDXobhoToC-13" value="cariUser(id, daftarUser, true)" style="shape=process;whiteSpace=wrap;html=1;backgroundOutline=1;rounded=1;arcSize=7;strokeWidth=2;" vertex="1" parent="1">
          <mxGeometry x="1710" y="1115" width="120" height="60" as="geometry" />
        </mxCell>
        <mxCell id="5v_lAmmthCmDXobhoToC-19" value="" style="edgeStyle=orthogonalEdgeStyle;rounded=0;orthogonalLoop=1;jettySize=auto;html=1;" edge="1" parent="1" source="5v_lAmmthCmDXobhoToC-15" target="5v_lAmmthCmDXobhoToC-17">
          <mxGeometry relative="1" as="geometry" />
        </mxCell>
        <mxCell id="5v_lAmmthCmDXobhoToC-23" value="" style="edgeStyle=orthogonalEdgeStyle;rounded=0;orthogonalLoop=1;jettySize=auto;html=1;" edge="1" parent="1" source="5v_lAmmthCmDXobhoToC-15" target="5v_lAmmthCmDXobhoToC-21">
          <mxGeometry relative="1" as="geometry" />
        </mxCell>
        <mxCell id="5v_lAmmthCmDXobhoToC-15" value="user != null" style="strokeWidth=2;html=1;shape=mxgraph.flowchart.decision;whiteSpace=wrap;" vertex="1" parent="1">
          <mxGeometry x="1714" y="1205" width="112" height="100" as="geometry" />
        </mxCell>
        <mxCell id="5v_lAmmthCmDXobhoToC-20" value="" style="edgeStyle=orthogonalEdgeStyle;rounded=0;orthogonalLoop=1;jettySize=auto;html=1;" edge="1" parent="1" source="5v_lAmmthCmDXobhoToC-17" target="5v_lAmmthCmDXobhoToC-18">
          <mxGeometry relative="1" as="geometry" />
        </mxCell>
        <mxCell id="5v_lAmmthCmDXobhoToC-17" value="Output &quot;User&amp;nbsp;&lt;div&gt;ditemukan: &quot;&lt;/div&gt;" style="shape=parallelogram;html=1;strokeWidth=2;perimeter=parallelogramPerimeter;whiteSpace=wrap;rounded=1;arcSize=12;size=0.23;" vertex="1" parent="1">
          <mxGeometry x="1860" y="1225" width="140" height="60" as="geometry" />
        </mxCell>
        <mxCell id="5v_lAmmthCmDXobhoToC-22" value="" style="edgeStyle=orthogonalEdgeStyle;rounded=0;orthogonalLoop=1;jettySize=auto;html=1;" edge="1" parent="1" source="5v_lAmmthCmDXobhoToC-18" target="5v_lAmmthCmDXobhoToC-21">
          <mxGeometry relative="1" as="geometry" />
        </mxCell>
        <mxCell id="5v_lAmmthCmDXobhoToC-18" value="Output user" style="shape=parallelogram;html=1;strokeWidth=2;perimeter=parallelogramPerimeter;whiteSpace=wrap;rounded=1;arcSize=12;size=0.23;" vertex="1" parent="1">
          <mxGeometry x="1860" y="1330" width="140" height="60" as="geometry" />
        </mxCell>
        <mxCell id="5v_lAmmthCmDXobhoToC-21" value="return" style="strokeWidth=2;html=1;shape=mxgraph.flowchart.terminator;whiteSpace=wrap;strokeColor=default;" vertex="1" parent="1">
          <mxGeometry x="1717.5" y="1335" width="105" height="50" as="geometry" />
        </mxCell>
        <mxCell id="5v_lAmmthCmDXobhoToC-26" value="" style="edgeStyle=orthogonalEdgeStyle;rounded=0;orthogonalLoop=1;jettySize=auto;html=1;" edge="1" parent="1" source="5v_lAmmthCmDXobhoToC-24" target="5v_lAmmthCmDXobhoToC-25">
          <mxGeometry relative="1" as="geometry" />
        </mxCell>
        <mxCell id="5v_lAmmthCmDXobhoToC-24" value="cariUser&lt;div&gt;(id, daftarUser, pesan)&lt;/div&gt;" style="strokeWidth=2;html=1;shape=mxgraph.flowchart.terminator;whiteSpace=wrap;strokeColor=default;" vertex="1" parent="1">
          <mxGeometry x="2221.5" y="850" width="135" height="50" as="geometry" />
        </mxCell>
        <mxCell id="5v_lAmmthCmDXobhoToC-28" value="" style="edgeStyle=orthogonalEdgeStyle;rounded=0;orthogonalLoop=1;jettySize=auto;html=1;" edge="1" parent="1" source="5v_lAmmthCmDXobhoToC-25" target="5v_lAmmthCmDXobhoToC-27">
          <mxGeometry relative="1" as="geometry" />
        </mxCell>
        <mxCell id="5v_lAmmthCmDXobhoToC-33" value="" style="edgeStyle=orthogonalEdgeStyle;rounded=0;orthogonalLoop=1;jettySize=auto;html=1;" edge="1" parent="1" source="5v_lAmmthCmDXobhoToC-25" target="5v_lAmmthCmDXobhoToC-32">
          <mxGeometry relative="1" as="geometry" />
        </mxCell>
        <mxCell id="5v_lAmmthCmDXobhoToC-25" value="User ada di&amp;nbsp;&lt;div&gt;daftar user?&lt;/div&gt;" style="strokeWidth=2;html=1;shape=mxgraph.flowchart.decision;whiteSpace=wrap;" vertex="1" parent="1">
          <mxGeometry x="2233" y="930" width="112" height="100" as="geometry" />
        </mxCell>
        <mxCell id="5v_lAmmthCmDXobhoToC-30" value="" style="edgeStyle=orthogonalEdgeStyle;rounded=0;orthogonalLoop=1;jettySize=auto;html=1;" edge="1" parent="1" source="5v_lAmmthCmDXobhoToC-27" target="5v_lAmmthCmDXobhoToC-29">
          <mxGeometry relative="1" as="geometry" />
        </mxCell>
        <mxCell id="5v_lAmmthCmDXobhoToC-27" value="id.daftarUser&amp;nbsp;&lt;div&gt;==&amp;nbsp;&lt;span style=&quot;background-color: transparent; color: light-dark(rgb(0, 0, 0), rgb(255, 255, 255));&quot;&gt;id&lt;/span&gt;&lt;/div&gt;" style="strokeWidth=2;html=1;shape=mxgraph.flowchart.decision;whiteSpace=wrap;" vertex="1" parent="1">
          <mxGeometry x="2233" y="1060" width="112" height="100" as="geometry" />
        </mxCell>
        <mxCell id="5v_lAmmthCmDXobhoToC-29" value="return p" style="strokeWidth=2;html=1;shape=mxgraph.flowchart.terminator;whiteSpace=wrap;strokeColor=default;" vertex="1" parent="1">
          <mxGeometry x="2236.5" y="1190" width="105" height="50" as="geometry" />
        </mxCell>
        <mxCell id="5v_lAmmthCmDXobhoToC-31" style="edgeStyle=orthogonalEdgeStyle;rounded=0;orthogonalLoop=1;jettySize=auto;html=1;entryX=0;entryY=0.5;entryDx=0;entryDy=0;entryPerimeter=0;" edge="1" parent="1" source="5v_lAmmthCmDXobhoToC-29" target="5v_lAmmthCmDXobhoToC-25">
          <mxGeometry relative="1" as="geometry">
            <Array as="points">
              <mxPoint x="2212.5" y="1215" />
              <mxPoint x="2212.5" y="980" />
            </Array>
          </mxGeometry>
        </mxCell>
        <mxCell id="5v_lAmmthCmDXobhoToC-35" value="" style="edgeStyle=orthogonalEdgeStyle;rounded=0;orthogonalLoop=1;jettySize=auto;html=1;" edge="1" parent="1" source="5v_lAmmthCmDXobhoToC-32" target="5v_lAmmthCmDXobhoToC-34">
          <mxGeometry relative="1" as="geometry" />
        </mxCell>
        <mxCell id="5v_lAmmthCmDXobhoToC-37" value="" style="edgeStyle=orthogonalEdgeStyle;rounded=0;orthogonalLoop=1;jettySize=auto;html=1;" edge="1" parent="1" source="5v_lAmmthCmDXobhoToC-32" target="5v_lAmmthCmDXobhoToC-36">
          <mxGeometry relative="1" as="geometry" />
        </mxCell>
        <mxCell id="5v_lAmmthCmDXobhoToC-32" value="pesan == true?" style="strokeWidth=2;html=1;shape=mxgraph.flowchart.decision;whiteSpace=wrap;" vertex="1" parent="1">
          <mxGeometry x="2394" y="930" width="112" height="100" as="geometry" />
        </mxCell>
        <mxCell id="5v_lAmmthCmDXobhoToC-34" value="Output &quot;User&amp;nbsp;&lt;div&gt;dgn&amp;nbsp;&lt;span style=&quot;background-color: transparent; color: light-dark(rgb(0, 0, 0), rgb(255, 255, 255));&quot;&gt;ID tsb tidak&lt;/span&gt;&lt;div&gt;&lt;span style=&quot;background-color: transparent; color: light-dark(rgb(0, 0, 0), rgb(255, 255, 255));&quot;&gt;ditemukan&quot;&lt;/span&gt;&lt;/div&gt;&lt;/div&gt;" style="shape=parallelogram;html=1;strokeWidth=2;perimeter=parallelogramPerimeter;whiteSpace=wrap;rounded=1;arcSize=12;size=0.23;" vertex="1" parent="1">
          <mxGeometry x="2380" y="1070" width="140" height="60" as="geometry" />
        </mxCell>
        <mxCell id="5v_lAmmthCmDXobhoToC-36" value="return null" style="strokeWidth=2;html=1;shape=mxgraph.flowchart.terminator;whiteSpace=wrap;strokeColor=default;" vertex="1" parent="1">
          <mxGeometry x="2538.5" y="955" width="105" height="50" as="geometry" />
        </mxCell>
        <mxCell id="5v_lAmmthCmDXobhoToC-38" style="edgeStyle=orthogonalEdgeStyle;rounded=0;orthogonalLoop=1;jettySize=auto;html=1;entryX=0.5;entryY=1;entryDx=0;entryDy=0;entryPerimeter=0;" edge="1" parent="1" source="5v_lAmmthCmDXobhoToC-34" target="5v_lAmmthCmDXobhoToC-36">
          <mxGeometry relative="1" as="geometry" />
        </mxCell>
        <mxCell id="5v_lAmmthCmDXobhoToC-43" value="" style="edgeStyle=orthogonalEdgeStyle;rounded=0;orthogonalLoop=1;jettySize=auto;html=1;" edge="1" parent="1" source="5v_lAmmthCmDXobhoToC-39" target="5v_lAmmthCmDXobhoToC-40">
          <mxGeometry relative="1" as="geometry" />
        </mxCell>
        <mxCell id="5v_lAmmthCmDXobhoToC-39" value="lanjutkan&lt;div&gt;Program()&lt;/div&gt;" style="strokeWidth=2;html=1;shape=mxgraph.flowchart.terminator;whiteSpace=wrap;strokeColor=default;" vertex="1" parent="1">
          <mxGeometry x="2757.5" y="850" width="105" height="50" as="geometry" />
        </mxCell>
        <mxCell id="5v_lAmmthCmDXobhoToC-42" value="" style="edgeStyle=orthogonalEdgeStyle;rounded=0;orthogonalLoop=1;jettySize=auto;html=1;" edge="1" parent="1" source="5v_lAmmthCmDXobhoToC-40" target="5v_lAmmthCmDXobhoToC-41">
          <mxGeometry relative="1" as="geometry" />
        </mxCell>
        <mxCell id="5v_lAmmthCmDXobhoToC-40" value="Output &quot;Lanjutkan&lt;div&gt;program (y/n)? &quot;&amp;nbsp;&lt;/div&gt;" style="shape=parallelogram;html=1;strokeWidth=2;perimeter=parallelogramPerimeter;whiteSpace=wrap;rounded=1;arcSize=12;size=0.23;" vertex="1" parent="1">
          <mxGeometry x="2740" y="930" width="140" height="60" as="geometry" />
        </mxCell>
        <mxCell id="5v_lAmmthCmDXobhoToC-45" value="" style="edgeStyle=orthogonalEdgeStyle;rounded=0;orthogonalLoop=1;jettySize=auto;html=1;" edge="1" parent="1" source="5v_lAmmthCmDXobhoToC-41" target="5v_lAmmthCmDXobhoToC-44">
          <mxGeometry relative="1" as="geometry" />
        </mxCell>
        <mxCell id="5v_lAmmthCmDXobhoToC-41" value="Input respon" style="shape=parallelogram;html=1;strokeWidth=2;perimeter=parallelogramPerimeter;whiteSpace=wrap;rounded=1;arcSize=12;size=0.23;" vertex="1" parent="1">
          <mxGeometry x="2740" y="1025" width="140" height="60" as="geometry" />
        </mxCell>
        <mxCell id="5v_lAmmthCmDXobhoToC-47" value="" style="edgeStyle=orthogonalEdgeStyle;rounded=0;orthogonalLoop=1;jettySize=auto;html=1;" edge="1" parent="1" source="5v_lAmmthCmDXobhoToC-44" target="5v_lAmmthCmDXobhoToC-46">
          <mxGeometry relative="1" as="geometry" />
        </mxCell>
        <mxCell id="5v_lAmmthCmDXobhoToC-51" value="" style="edgeStyle=orthogonalEdgeStyle;rounded=0;orthogonalLoop=1;jettySize=auto;html=1;" edge="1" parent="1" source="5v_lAmmthCmDXobhoToC-44" target="5v_lAmmthCmDXobhoToC-50">
          <mxGeometry relative="1" as="geometry" />
        </mxCell>
        <mxCell id="5v_lAmmthCmDXobhoToC-44" value="respon == &#39;n&#39;" style="strokeWidth=2;html=1;shape=mxgraph.flowchart.decision;whiteSpace=wrap;" vertex="1" parent="1">
          <mxGeometry x="2754" y="1115" width="112" height="100" as="geometry" />
        </mxCell>
        <mxCell id="5v_lAmmthCmDXobhoToC-49" value="" style="edgeStyle=orthogonalEdgeStyle;rounded=0;orthogonalLoop=1;jettySize=auto;html=1;" edge="1" parent="1" source="5v_lAmmthCmDXobhoToC-46" target="5v_lAmmthCmDXobhoToC-48">
          <mxGeometry relative="1" as="geometry" />
        </mxCell>
        <mxCell id="5v_lAmmthCmDXobhoToC-46" value="Output &quot;Terima kasih&lt;div&gt;&lt;span style=&quot;background-color: transparent; color: light-dark(rgb(0, 0, 0), rgb(255, 255, 255));&quot;&gt;telah&amp;nbsp;&lt;/span&gt;&lt;span style=&quot;background-color: transparent; color: light-dark(rgb(0, 0, 0), rgb(255, 255, 255));&quot;&gt;menggunakan&lt;/span&gt;&lt;/div&gt;&lt;div&gt;&lt;span style=&quot;background-color: transparent; color: light-dark(rgb(0, 0, 0), rgb(255, 255, 255));&quot;&gt;progam&quot;&lt;/span&gt;&lt;/div&gt;" style="shape=parallelogram;html=1;strokeWidth=2;perimeter=parallelogramPerimeter;whiteSpace=wrap;rounded=1;arcSize=12;size=0.23;" vertex="1" parent="1">
          <mxGeometry x="2740" y="1245" width="140" height="60" as="geometry" />
        </mxCell>
        <mxCell id="5v_lAmmthCmDXobhoToC-48" value="return" style="strokeWidth=2;html=1;shape=mxgraph.flowchart.terminator;whiteSpace=wrap;strokeColor=default;" vertex="1" parent="1">
          <mxGeometry x="2757.5" y="1335" width="105" height="50" as="geometry" />
        </mxCell>
        <mxCell id="5v_lAmmthCmDXobhoToC-50" value="return&amp;nbsp;&lt;div&gt;respon == &#39;y&#39;&lt;/div&gt;" style="strokeWidth=2;html=1;shape=mxgraph.flowchart.terminator;whiteSpace=wrap;strokeColor=default;" vertex="1" parent="1">
          <mxGeometry x="2917.5" y="1140" width="105" height="50" as="geometry" />
        </mxCell>
        <mxCell id="5v_lAmmthCmDXobhoToC-54" value="" style="edgeStyle=orthogonalEdgeStyle;rounded=0;orthogonalLoop=1;jettySize=auto;html=1;" edge="1" parent="1" source="5v_lAmmthCmDXobhoToC-52" target="v9KvLC4F9H2_IWOcF26b-8">
          <mxGeometry relative="1" as="geometry" />
        </mxCell>
        <mxCell id="5v_lAmmthCmDXobhoToC-52" value="cariUser(id, daftarUser, false)" style="shape=process;whiteSpace=wrap;html=1;backgroundOutline=1;rounded=1;arcSize=7;strokeWidth=2;" vertex="1" parent="1">
          <mxGeometry x="1160" y="475" width="120" height="60" as="geometry" />
        </mxCell>
        <mxCell id="eP4V0BSZi3MoMfYcrTQb-1" value="Y" style="text;html=1;align=center;verticalAlign=middle;whiteSpace=wrap;rounded=0;" vertex="1" parent="1">
          <mxGeometry x="156.5" y="370" width="20" height="20" as="geometry" />
        </mxCell>
        <mxCell id="eP4V0BSZi3MoMfYcrTQb-2" value="N" style="text;html=1;align=center;verticalAlign=middle;whiteSpace=wrap;rounded=0;" vertex="1" parent="1">
          <mxGeometry x="70" y="445" width="20" height="20" as="geometry" />
        </mxCell>
        <mxCell id="S57QRM1PSJ2Nqtw7xYWy-1" value="Y" style="text;html=1;align=center;verticalAlign=middle;whiteSpace=wrap;rounded=0;" vertex="1" parent="1">
          <mxGeometry x="260" y="555" width="20" height="20" as="geometry" />
        </mxCell>
        <mxCell id="S57QRM1PSJ2Nqtw7xYWy-3" value="N" style="text;html=1;align=center;verticalAlign=middle;whiteSpace=wrap;rounded=0;" vertex="1" parent="1">
          <mxGeometry x="311" y="480" width="20" height="20" as="geometry" />
        </mxCell>
        <mxCell id="S57QRM1PSJ2Nqtw7xYWy-6" value="Y" style="text;html=1;align=center;verticalAlign=middle;whiteSpace=wrap;rounded=0;" vertex="1" parent="1">
          <mxGeometry x="311" y="700" width="20" height="20" as="geometry" />
        </mxCell>
        <mxCell id="S57QRM1PSJ2Nqtw7xYWy-7" value="N" style="text;html=1;align=center;verticalAlign=middle;whiteSpace=wrap;rounded=0;" vertex="1" parent="1">
          <mxGeometry x="230" y="775" width="20" height="20" as="geometry" />
        </mxCell>
        <mxCell id="S57QRM1PSJ2Nqtw7xYWy-8" value="Y" style="text;html=1;align=center;verticalAlign=middle;whiteSpace=wrap;rounded=0;" vertex="1" parent="1">
          <mxGeometry x="311" y="830" width="20" height="20" as="geometry" />
        </mxCell>
        <mxCell id="S57QRM1PSJ2Nqtw7xYWy-9" value="Y" style="text;html=1;align=center;verticalAlign=middle;whiteSpace=wrap;rounded=0;" vertex="1" parent="1">
          <mxGeometry x="700" y="660" width="20" height="20" as="geometry" />
        </mxCell>
        <mxCell id="S57QRM1PSJ2Nqtw7xYWy-10" style="edgeStyle=orthogonalEdgeStyle;rounded=0;orthogonalLoop=1;jettySize=auto;html=1;entryX=0;entryY=0.5;entryDx=0;entryDy=0;entryPerimeter=0;" edge="1" parent="1" source="1-rIj8gA_Ch3eZ7NqGmP-48" target="1-rIj8gA_Ch3eZ7NqGmP-55">
          <mxGeometry relative="1" as="geometry">
            <Array as="points">
              <mxPoint x="830" y="725" />
              <mxPoint x="830" y="1550" />
              <mxPoint x="30" y="1550" />
              <mxPoint x="30" y="505" />
            </Array>
          </mxGeometry>
        </mxCell>
        <mxCell id="S57QRM1PSJ2Nqtw7xYWy-12" value="N" style="text;html=1;align=center;verticalAlign=middle;whiteSpace=wrap;rounded=0;" vertex="1" parent="1">
          <mxGeometry x="786" y="700" width="20" height="20" as="geometry" />
        </mxCell>
        <mxCell id="S57QRM1PSJ2Nqtw7xYWy-14" value="Y" style="text;html=1;align=center;verticalAlign=middle;whiteSpace=wrap;rounded=0;" vertex="1" parent="1">
          <mxGeometry x="311" y="960" width="20" height="20" as="geometry" />
        </mxCell>
        <mxCell id="S57QRM1PSJ2Nqtw7xYWy-15" value="N" style="text;html=1;align=center;verticalAlign=middle;whiteSpace=wrap;rounded=0;" vertex="1" parent="1">
          <mxGeometry x="230" y="905" width="20" height="20" as="geometry" />
        </mxCell>
        <mxCell id="S57QRM1PSJ2Nqtw7xYWy-16" value="N" style="text;html=1;align=center;verticalAlign=middle;whiteSpace=wrap;rounded=0;" vertex="1" parent="1">
          <mxGeometry x="230" y="1035" width="20" height="20" as="geometry" />
        </mxCell>
        <mxCell id="S57QRM1PSJ2Nqtw7xYWy-17" value="Y" style="text;html=1;align=center;verticalAlign=middle;whiteSpace=wrap;rounded=0;" vertex="1" parent="1">
          <mxGeometry x="311" y="1090" width="20" height="20" as="geometry" />
        </mxCell>
        <mxCell id="S57QRM1PSJ2Nqtw7xYWy-18" value="Y" style="text;html=1;align=center;verticalAlign=middle;whiteSpace=wrap;rounded=0;" vertex="1" parent="1">
          <mxGeometry x="311" y="1220" width="20" height="20" as="geometry" />
        </mxCell>
        <mxCell id="S57QRM1PSJ2Nqtw7xYWy-19" value="N" style="text;html=1;align=center;verticalAlign=middle;whiteSpace=wrap;rounded=0;" vertex="1" parent="1">
          <mxGeometry x="230" y="1165" width="20" height="20" as="geometry" />
        </mxCell>
        <mxCell id="S57QRM1PSJ2Nqtw7xYWy-20" value="N" style="text;html=1;align=center;verticalAlign=middle;whiteSpace=wrap;rounded=0;" vertex="1" parent="1">
          <mxGeometry x="230" y="1295" width="20" height="20" as="geometry" />
        </mxCell>
        <mxCell id="S57QRM1PSJ2Nqtw7xYWy-21" value="Y" style="text;html=1;align=center;verticalAlign=middle;whiteSpace=wrap;rounded=0;" vertex="1" parent="1">
          <mxGeometry x="311" y="1350" width="20" height="20" as="geometry" />
        </mxCell>
        <mxCell id="S57QRM1PSJ2Nqtw7xYWy-22" value="N" style="text;html=1;align=center;verticalAlign=middle;whiteSpace=wrap;rounded=0;" vertex="1" parent="1">
          <mxGeometry x="230" y="1425" width="20" height="20" as="geometry" />
        </mxCell>
        <mxCell id="S57QRM1PSJ2Nqtw7xYWy-23" value="Y" style="text;html=1;align=center;verticalAlign=middle;whiteSpace=wrap;rounded=0;" vertex="1" parent="1">
          <mxGeometry x="1276" y="365" width="20" height="20" as="geometry" />
        </mxCell>
        <mxCell id="S57QRM1PSJ2Nqtw7xYWy-24" value="N" style="text;html=1;align=center;verticalAlign=middle;whiteSpace=wrap;rounded=0;" vertex="1" parent="1">
          <mxGeometry x="1190" y="440" width="20" height="20" as="geometry" />
        </mxCell>
        <mxCell id="S57QRM1PSJ2Nqtw7xYWy-26" value="Y" style="text;html=1;align=center;verticalAlign=middle;whiteSpace=wrap;rounded=0;" vertex="1" parent="1">
          <mxGeometry x="1826" y="445" width="20" height="20" as="geometry" />
        </mxCell>
        <mxCell id="S57QRM1PSJ2Nqtw7xYWy-27" value="N" style="text;html=1;align=center;verticalAlign=middle;whiteSpace=wrap;rounded=0;" vertex="1" parent="1">
          <mxGeometry x="1740" y="520" width="20" height="20" as="geometry" />
        </mxCell>
        <mxCell id="S57QRM1PSJ2Nqtw7xYWy-28" value="Y" style="text;html=1;align=center;verticalAlign=middle;whiteSpace=wrap;rounded=0;" vertex="1" parent="1">
          <mxGeometry x="2328.5" y="445" width="20" height="20" as="geometry" />
        </mxCell>
        <mxCell id="S57QRM1PSJ2Nqtw7xYWy-29" value="N" style="text;html=1;align=center;verticalAlign=middle;whiteSpace=wrap;rounded=0;" vertex="1" parent="1">
          <mxGeometry x="2236.5" y="520" width="20" height="20" as="geometry" />
        </mxCell>
        <mxCell id="kRxXBkUVzSMFJTckhV8V-1" value="Y" style="text;html=1;align=center;verticalAlign=middle;whiteSpace=wrap;rounded=0;" vertex="1" parent="1">
          <mxGeometry x="1276" y="1125" width="20" height="20" as="geometry" />
        </mxCell>
        <mxCell id="kRxXBkUVzSMFJTckhV8V-2" value="N" style="text;html=1;align=center;verticalAlign=middle;whiteSpace=wrap;rounded=0;" vertex="1" parent="1">
          <mxGeometry x="1190" y="1200" width="20" height="20" as="geometry" />
        </mxCell>
        <mxCell id="kRxXBkUVzSMFJTckhV8V-3" value="Y" style="text;html=1;align=center;verticalAlign=middle;whiteSpace=wrap;rounded=0;" vertex="1" parent="1">
          <mxGeometry x="1190" y="1420" width="20" height="20" as="geometry" />
        </mxCell>
        <mxCell id="kRxXBkUVzSMFJTckhV8V-4" value="N" style="text;html=1;align=center;verticalAlign=middle;whiteSpace=wrap;rounded=0;" vertex="1" parent="1">
          <mxGeometry x="1280" y="1345" width="20" height="20" as="geometry" />
        </mxCell>
        <mxCell id="kRxXBkUVzSMFJTckhV8V-5" value="Y" style="text;html=1;align=center;verticalAlign=middle;whiteSpace=wrap;rounded=0;" vertex="1" parent="1">
          <mxGeometry x="1826" y="1230" width="20" height="20" as="geometry" />
        </mxCell>
        <mxCell id="kRxXBkUVzSMFJTckhV8V-6" value="N" style="text;html=1;align=center;verticalAlign=middle;whiteSpace=wrap;rounded=0;" vertex="1" parent="1">
          <mxGeometry x="1740" y="1305" width="20" height="20" as="geometry" />
        </mxCell>
        <mxCell id="kRxXBkUVzSMFJTckhV8V-7" value="Y" style="text;html=1;align=center;verticalAlign=middle;whiteSpace=wrap;rounded=0;" vertex="1" parent="1">
          <mxGeometry x="2262.5" y="1030" width="20" height="20" as="geometry" />
        </mxCell>
        <mxCell id="kRxXBkUVzSMFJTckhV8V-8" value="N" style="text;html=1;align=center;verticalAlign=middle;whiteSpace=wrap;rounded=0;" vertex="1" parent="1">
          <mxGeometry x="2345" y="960" width="20" height="20" as="geometry" />
        </mxCell>
        <mxCell id="kRxXBkUVzSMFJTckhV8V-9" value="Y" style="text;html=1;align=center;verticalAlign=middle;whiteSpace=wrap;rounded=0;" vertex="1" parent="1">
          <mxGeometry x="2262.5" y="1160" width="20" height="20" as="geometry" />
        </mxCell>
        <mxCell id="kRxXBkUVzSMFJTckhV8V-10" style="edgeStyle=orthogonalEdgeStyle;rounded=0;orthogonalLoop=1;jettySize=auto;html=1;entryX=0;entryY=0.5;entryDx=0;entryDy=0;entryPerimeter=0;" edge="1" parent="1" source="5v_lAmmthCmDXobhoToC-27" target="5v_lAmmthCmDXobhoToC-32">
          <mxGeometry relative="1" as="geometry">
            <Array as="points">
              <mxPoint x="2370" y="1110" />
              <mxPoint x="2370" y="980" />
            </Array>
          </mxGeometry>
        </mxCell>
        <mxCell id="kRxXBkUVzSMFJTckhV8V-11" value="N" style="text;html=1;align=center;verticalAlign=middle;whiteSpace=wrap;rounded=0;" vertex="1" parent="1">
          <mxGeometry x="2342.5" y="1085" width="20" height="20" as="geometry" />
        </mxCell>
        <mxCell id="kRxXBkUVzSMFJTckhV8V-12" value="Y" style="text;html=1;align=center;verticalAlign=middle;whiteSpace=wrap;rounded=0;" vertex="1" parent="1">
          <mxGeometry x="2460" y="1030" width="20" height="20" as="geometry" />
        </mxCell>
        <mxCell id="kRxXBkUVzSMFJTckhV8V-13" value="N" style="text;html=1;align=center;verticalAlign=middle;whiteSpace=wrap;rounded=0;" vertex="1" parent="1">
          <mxGeometry x="2506" y="960" width="20" height="20" as="geometry" />
        </mxCell>
        <mxCell id="kRxXBkUVzSMFJTckhV8V-14" value="Y" style="text;html=1;align=center;verticalAlign=middle;whiteSpace=wrap;rounded=0;" vertex="1" parent="1">
          <mxGeometry x="2780" y="1215" width="20" height="20" as="geometry" />
        </mxCell>
        <mxCell id="kRxXBkUVzSMFJTckhV8V-15" value="N" style="text;html=1;align=center;verticalAlign=middle;whiteSpace=wrap;rounded=0;" vertex="1" parent="1">
          <mxGeometry x="2870" y="1140" width="20" height="20" as="geometry" />
        </mxCell>
      </root>
    </mxGraphModel>
  </diagram>
</mxfile>
